<?xml version="1.0" standalone="no"?>
<!DOCTYPE svg PUBLIC "-//W3C//DTD SVG 20010904//EN"
 "http://www.w3.org/TR/2001/REC-SVG-20010904/DTD/svg10.dtd">
<svg version="1.0" xmlns="http://www.w3.org/2000/svg"
 width="2592.000000pt" height="2160.000000pt" viewBox="0 0 2592.000000 2160.000000"
 preserveAspectRatio="xMidYMid meet">
<metadata>
Created by potrace 1.16, written by Peter Selinger 2001-2019
</metadata>
<g transform="translate(0.000000,2160.000000) scale(0.100000,-0.100000)"
fill="#000000" stroke="none">
<path d="M9140 16270 c-58 -3 -136 -5 -175 -5 -38 0 -73 -4 -77 -10 -5 -6 -11
-5 -17 4 -6 8 -10 9 -12 2 -4 -10 -176 -24 -263 -22 -16 0 -37 -4 -49 -10 -15
-8 -22 -8 -28 2 -5 9 -9 9 -9 3 0 -7 -16 -12 -37 -11 -21 0 -65 -3 -98 -7 -87
-10 -176 -18 -210 -20 -16 0 -32 -4 -35 -8 -5 -6 -158 -20 -247 -22 -24 -1
-43 -3 -43 -6 0 -6 -94 -13 -187 -14 -35 -1 -63 -4 -63 -8 0 -3 -30 -5 -66 -4
-36 1 -68 -2 -70 -6 -3 -5 -54 -8 -112 -8 -59 0 -129 -2 -157 -4 -46 -4 -530
-31 -717 -40 -53 -2 -78 0 -78 8 0 8 -2 8 -8 -1 -4 -6 -26 -10 -54 -8 -26 1
-45 -1 -42 -6 3 -5 -2 -9 -10 -9 -9 0 -16 6 -16 13 0 9 -2 9 -8 0 -4 -6 -30
-12 -57 -13 -76 -2 -159 -7 -165 -9 -3 -1 -50 -4 -105 -5 -55 -2 -138 -9 -185
-15 -47 -6 -123 -13 -170 -16 -47 -2 -85 -5 -85 -6 0 -1 -20 -3 -45 -5 -25 -2
-70 -6 -100 -9 -30 -2 -133 -6 -227 -7 -95 -1 -173 -5 -173 -8 0 -3 -33 -6
-72 -6 -40 1 -76 -3 -80 -9 -5 -6 -8 -5 -8 3 0 6 -7 12 -15 12 -8 0 -15 -3
-15 -7 0 -5 -21 -8 -48 -8 -26 -1 -87 -5 -137 -9 -49 -5 -105 -10 -122 -11
-18 0 -36 -4 -39 -8 -4 -4 -37 -7 -73 -7 -36 0 -93 -5 -126 -10 -33 -6 -94
-13 -135 -16 -41 -3 -93 -9 -115 -13 -22 -4 -51 -7 -63 -6 -12 1 -22 -2 -22
-5 0 -4 -10 -8 -22 -8 -13 0 -50 -4 -83 -10 -33 -6 -67 -10 -75 -10 -8 0 -57
-8 -109 -17 -52 -8 -101 -13 -108 -11 -7 3 -13 1 -13 -5 0 -5 -6 -9 -12 -8 -7
1 -20 0 -28 -4 -20 -8 -80 -18 -107 -19 -13 0 -23 -4 -23 -10 0 -5 -4 -7 -9
-4 -5 3 -28 0 -52 -7 -25 -8 -54 -13 -67 -12 -12 1 -22 -2 -22 -7 0 -4 -7 -8
-15 -8 -9 0 -27 -7 -40 -16 -17 -11 -25 -12 -25 -4 0 7 -6 6 -16 -4 -14 -14
-35 -21 -57 -17 -4 0 -7 -4 -7 -9 0 -9 -104 -63 -120 -63 -3 0 -10 -6 -15 -14
-6 -8 -17 -15 -25 -17 -30 -6 -55 -21 -82 -48 -15 -15 -31 -28 -37 -28 -5 0
-17 -12 -26 -27 -10 -16 -32 -42 -49 -58 -29 -29 -35 -39 -40 -73 -1 -7 -8
-18 -14 -24 -7 -7 -12 -20 -12 -30 0 -9 -6 -21 -12 -25 -15 -9 -17 -23 -23
-141 -3 -57 0 -97 10 -125 8 -22 11 -45 8 -50 -3 -6 -1 -7 5 -3 17 10 21 -78
5 -114 -7 -19 -8 -24 -22 -150 -6 -58 -10 -155 -8 -217 l2 -111 -35 -10 c-44
-13 -158 -27 -187 -24 -12 1 -24 -2 -27 -7 -3 -5 -20 -7 -36 -5 -17 3 -30 2
-30 -3 0 -4 -15 -8 -32 -9 -28 0 -83 -6 -158 -18 -9 -1 -21 -5 -27 -9 -7 -4
-30 -9 -52 -12 -22 -2 -49 -8 -60 -14 -11 -6 -24 -10 -28 -9 -4 1 -27 -2 -50
-6 -24 -4 -44 -6 -46 -4 -2 1 -11 -3 -20 -11 -10 -7 -17 -10 -17 -7 0 4 -10 0
-21 -8 -12 -8 -28 -12 -36 -9 -8 3 -18 1 -22 -5 -4 -6 -25 -14 -46 -18 -22 -3
-46 -11 -52 -16 -7 -6 -13 -7 -13 -4 0 4 -7 0 -16 -8 -8 -9 -25 -16 -36 -16
-11 0 -26 -7 -32 -15 -6 -9 -21 -17 -33 -18 -12 0 -20 -4 -17 -8 4 -7 -108
-79 -121 -79 -10 0 -80 -74 -80 -84 -1 -6 -7 -10 -14 -8 -7 1 -11 -5 -10 -15
4 -24 -10 -63 -21 -63 -5 0 -7 -7 -4 -15 4 -8 1 -15 -5 -15 -11 0 -8 -599 4
-790 12 -180 17 -432 9 -427 -5 3 -9 -23 -9 -58 0 -35 3 -61 8 -58 4 2 7 -22
7 -54 0 -32 5 -78 11 -103 13 -57 15 -65 23 -123 7 -46 20 -84 53 -157 24 -51
115 -142 201 -201 42 -28 81 -52 88 -53 7 -1 18 -7 25 -12 28 -22 112 -55 125
-50 8 3 14 -1 14 -9 0 -9 10 -15 24 -15 35 0 57 -10 49 -23 -3 -5 -2 -7 4 -4
5 3 30 0 55 -8 26 -7 49 -11 52 -8 3 4 6 1 6 -6 0 -7 8 -11 18 -10 17 3 49 -5
87 -21 37 -15 100 -28 125 -26 14 1 28 -2 31 -7 3 -4 30 -9 60 -10 30 -1 57
-6 61 -12 4 -5 28 -9 54 -10 36 0 48 -4 49 -16 2 -12 -3 -15 -16 -12 -10 3
-19 1 -19 -4 0 -5 -19 -10 -43 -10 -24 -1 -69 -6 -101 -13 -32 -6 -60 -9 -63
-6 -4 3 -12 1 -20 -5 -7 -6 -13 -8 -13 -4 0 4 -7 2 -15 -5 -12 -10 -15 -10
-15 1 0 10 -2 11 -8 2 -4 -6 -25 -14 -47 -16 -22 -3 -52 -10 -67 -16 -16 -6
-28 -7 -28 -2 0 5 -18 2 -40 -5 -22 -8 -56 -15 -75 -17 -19 -1 -35 -6 -35 -11
0 -4 -7 -6 -15 -2 -8 3 -15 1 -15 -3 0 -5 -8 -7 -19 -4 -10 3 -22 0 -25 -6 -4
-6 -18 -8 -32 -5 -14 4 -24 2 -24 -4 0 -6 -18 -13 -40 -17 -23 -4 -54 -13 -70
-21 -16 -8 -39 -17 -52 -19 -13 -3 -24 -9 -26 -15 -2 -6 -8 -7 -13 -4 -6 3
-27 -7 -47 -23 -20 -15 -41 -27 -45 -25 -5 1 -6 -2 -2 -8 3 -5 -1 -13 -9 -16
-30 -12 -112 -129 -139 -199 -40 -107 -49 -160 -42 -254 5 -65 4 -86 -7 -92
-10 -7 -11 -9 0 -9 8 0 10 -5 6 -12 -10 -16 -11 -208 -1 -208 4 0 7 -20 7 -45
0 -29 -4 -45 -12 -45 -10 0 -10 -2 -1 -8 9 -6 13 -44 15 -120 1 -62 4 -112 8
-112 7 0 5 -154 -2 -192 -3 -15 -11 -34 -18 -43 -7 -8 -9 -15 -5 -15 4 0 3 -6
-3 -12 -16 -20 -7 -292 11 -338 3 -8 15 -44 27 -79 11 -36 24 -67 28 -70 10
-8 63 -91 58 -91 -2 0 27 -31 65 -70 37 -38 72 -70 77 -70 5 0 19 -9 32 -20
13 -11 29 -20 35 -20 7 0 18 -7 25 -15 7 -8 24 -15 39 -15 14 0 37 -9 51 -20
14 -11 29 -20 33 -20 16 0 34 -25 30 -40 -4 -13 -3 -13 6 0 7 9 14 11 18 5 5
-5 15 -11 23 -13 8 -2 48 -23 87 -48 41 -24 73 -38 73 -31 0 8 3 9 8 1 10 -16
103 -66 110 -60 3 3 10 2 16 -3 6 -5 42 -22 80 -37 39 -15 65 -29 58 -32 -6
-2 -13 -2 -14 -1 -6 7 -54 -47 -50 -55 7 -12 -53 -63 -102 -86 -23 -10 -63
-33 -91 -50 -45 -28 -124 -67 -212 -107 -18 -7 -33 -18 -33 -23 0 -6 -6 -10
-14 -10 -8 0 -27 -13 -42 -29 -16 -17 -33 -27 -42 -23 -9 3 -13 1 -9 -5 8 -12
-17 -36 -26 -26 -4 3 -7 1 -7 -6 0 -7 -18 -33 -40 -58 -21 -25 -54 -75 -71
-112 -18 -36 -36 -68 -40 -71 -4 -3 -11 -18 -14 -33 -4 -15 -12 -27 -17 -27
-6 0 -7 -7 -4 -16 4 -9 1 -22 -4 -30 -8 -8 -10 -90 -6 -261 7 -310 9 -353 16
-353 3 0 6 -8 7 -17 0 -10 4 -65 9 -123 4 -58 8 -119 8 -137 1 -17 4 -29 8
-26 5 2 8 -7 8 -21 0 -14 -4 -26 -10 -26 -5 0 -10 -12 -10 -26 0 -17 -12 -38
-32 -58 -32 -30 -40 -46 -41 -73 0 -7 -4 -13 -9 -13 -5 0 -7 -4 -4 -9 4 -5 2
-11 -3 -13 -6 -1 -11 -27 -13 -55 -3 -45 -6 -53 -23 -54 -17 -1 -17 -2 -2 -6
9 -2 17 -12 17 -20 0 -9 8 -25 17 -36 10 -11 12 -17 6 -13 -9 5 -13 -1 -13
-18 0 -13 5 -26 11 -28 5 -2 11 -10 12 -18 2 -8 6 -21 11 -28 4 -7 6 -15 3
-18 -6 -6 71 -84 83 -84 6 0 10 -4 10 -10 0 -18 39 -50 53 -44 8 3 23 -3 32
-13 10 -10 22 -18 26 -18 5 0 18 -8 29 -18 23 -19 40 -22 40 -6 0 6 7 3 16 -5
8 -9 23 -16 32 -16 8 0 25 -9 37 -20 12 -11 33 -21 48 -22 15 -1 29 -9 32 -16
3 -8 12 -12 20 -9 9 4 12 1 8 -8 -3 -9 3 -18 13 -22 11 -3 22 -11 25 -16 4 -5
18 -10 32 -10 21 -2 23 -5 14 -16 -9 -12 -9 -13 0 -8 7 4 31 -1 55 -13 27 -13
44 -16 48 -10 4 7 11 5 20 -5 7 -8 27 -15 46 -15 18 0 35 -4 39 -10 3 -5 12
-7 20 -3 9 3 15 -1 15 -8 0 -12 2 -12 9 0 5 7 13 11 19 7 10 -6 130 -18 195
-20 15 -1 27 -5 27 -9 0 -5 5 -5 10 -2 6 3 10 2 10 -3 0 -9 67 -14 192 -14 48
0 56 -3 51 -17 -4 -13 -3 -13 5 -2 7 10 31 14 87 13 42 -1 82 -5 88 -9 12 -7
11 -7 392 -18 177 -5 273 -12 277 -19 6 -8 10 -8 15 0 9 13 43 15 43 2 0 -4 7
-8 16 -8 8 0 13 4 9 9 -8 13 38 10 47 -4 5 -6 11 -7 15 0 5 6 15 10 23 10 8 0
18 -4 23 -10 4 -7 10 -6 15 1 8 13 42 15 42 2 0 -4 7 -8 15 -8 8 0 15 4 15 8
0 13 34 11 43 -2 6 -8 10 -8 13 1 4 8 13 9 36 1 23 -8 32 -8 38 2 9 15 21 15
31 -1 6 -10 13 -10 33 -1 14 6 26 8 26 4 0 -5 23 -8 50 -8 28 0 50 3 50 6 0 4
7 7 15 7 8 0 15 -3 15 -6 0 -4 36 -6 80 -6 44 0 80 2 80 6 0 3 7 6 15 6 8 0
15 -3 15 -6 0 -4 36 -7 80 -7 44 0 80 3 80 6 0 3 9 6 20 7 11 1 18 -2 15 -8
-4 -5 1 -9 9 -9 9 0 16 4 16 9 0 12 33 9 43 -4 4 -7 10 -6 15 1 8 13 42 15 42
2 0 -4 7 -8 16 -8 8 0 12 5 8 11 -4 8 1 9 17 3 13 -4 35 -7 49 -6 33 1 90 -17
90 -29 0 -5 9 -22 20 -37 18 -25 19 -34 10 -147 -14 -160 -13 -238 2 -229 4 3
8 -9 8 -25 0 -17 4 -31 8 -31 5 0 14 -11 20 -24 19 -43 75 -76 130 -80 28 -1
48 2 45 6 -3 5 10 7 29 3 18 -3 66 -7 106 -9 40 -2 75 -6 78 -8 3 -3 7 -34 9
-69 2 -35 7 -84 9 -109 17 -155 17 -157 -12 -176 -36 -24 -59 -54 -66 -85 -3
-15 -11 -33 -19 -41 -20 -19 -31 -74 -27 -123 4 -48 3 -160 -4 -231 -4 -48 -1
-54 32 -92 42 -46 104 -82 174 -100 49 -12 193 -27 238 -25 79 5 151 12 195
19 28 4 60 8 73 8 12 1 22 5 22 10 0 4 7 6 15 2 8 -3 15 -1 15 5 0 6 7 9 15 5
8 -3 15 -1 15 4 0 6 6 10 13 10 18 0 97 39 115 56 7 8 16 14 20 14 12 1 119
104 137 132 9 15 21 26 25 23 4 -2 10 -28 13 -56 7 -60 33 -101 91 -146 22
-18 52 -43 66 -55 14 -13 43 -33 65 -45 38 -19 60 -26 123 -38 13 -2 33 -7 44
-11 36 -11 402 -4 478 10 14 2 46 7 72 10 25 3 57 10 70 15 13 5 26 9 31 10 4
0 8 1 10 2 1 0 15 3 32 5 16 3 32 9 35 13 3 4 27 15 54 24 48 17 49 16 78 -8
16 -14 34 -25 39 -25 6 0 7 -6 3 -12 -4 -7 -4 -10 0 -7 4 4 27 1 51 -6 44 -14
204 -14 255 -1 14 4 36 8 50 10 14 2 32 6 40 9 14 5 57 11 160 21 51 6 99 13
148 24 24 6 55 8 70 6 25 -3 321 -4 557 0 55 0 102 4 105 8 4 4 28 8 55 9 28
1 52 6 55 10 3 5 17 11 30 13 14 2 25 5 25 6 0 1 10 3 22 4 13 2 31 10 41 19
10 9 25 17 32 17 7 0 21 7 31 16 12 11 25 14 36 9 10 -5 22 -7 27 -6 5 1 12
-2 15 -6 3 -4 22 -16 42 -25 32 -15 54 -20 119 -32 61 -10 130 -31 130 -38 0
-4 3 -7 8 -7 4 1 9 0 12 -1 39 -15 192 -20 243 -8 23 5 47 11 53 12 7 1 19 8
28 15 8 7 19 10 25 7 5 -4 16 1 24 9 9 8 20 15 24 15 13 0 71 48 116 95 73 76
98 150 97 280 0 28 6 63 15 79 8 15 15 35 15 42 0 8 3 14 8 14 10 0 34 95 37
152 1 26 -3 72 -10 102 -7 30 -11 57 -8 60 7 6 96 -27 105 -39 4 -5 8 -6 8 -1
0 5 7 3 15 -4 9 -7 14 -19 11 -26 -3 -7 0 -14 5 -16 14 -5 12 -119 -1 -135 -2
-2 -3 -6 -5 -10 -1 -5 -7 -21 -13 -36 -7 -16 -12 -34 -12 -41 0 -6 -4 -16 -9
-22 -5 -5 -12 -25 -14 -44 -3 -19 -6 -35 -7 -35 -1 0 -3 -10 -4 -22 -1 -11
-17 -35 -34 -52 -56 -56 -50 -131 17 -204 48 -53 195 -106 336 -121 215 -24
295 -26 380 -12 39 7 91 12 118 11 26 0 47 2 47 5 0 12 74 39 84 31 6 -5 27
-12 46 -16 19 -4 39 -10 44 -13 12 -7 49 -9 297 -17 107 -3 222 -8 255 -12
118 -12 271 -6 391 16 23 5 59 6 80 4 77 -8 297 -4 288 5 -2 3 7 13 20 24 13
10 30 31 37 45 7 14 22 31 32 37 26 15 52 41 64 63 11 20 5 71 -11 90 -5 7
-11 37 -13 65 -11 194 -37 437 -51 483 -3 11 -14 30 -24 43 -14 18 -18 42 -17
115 0 78 3 98 23 132 35 61 60 166 71 300 5 69 13 92 21 67 4 -10 8 -10 17 2
9 13 40 16 164 19 85 1 156 -1 158 -5 3 -5 2 -8 -3 -8 -4 0 -9 -15 -9 -32 -2
-46 -14 -98 -29 -128 -10 -20 -31 -81 -40 -120 0 -3 -4 -14 -8 -25 -3 -11 -9
-33 -13 -50 -10 -39 -14 -287 -6 -300 4 -5 8 -21 10 -35 2 -13 7 -29 12 -35
14 -17 43 -107 46 -145 9 -103 40 -219 65 -240 3 -3 9 -17 13 -32 3 -16 11
-28 16 -28 6 0 10 -5 10 -11 0 -17 87 -97 123 -114 18 -7 59 -29 92 -48 75
-41 229 -104 287 -116 24 -5 75 -16 113 -25 102 -23 320 -18 580 14 95 11 508
0 730 -20 93 -9 241 -11 575 -8 30 0 107 8 170 18 63 10 169 21 235 24 120 6
207 20 320 50 56 15 283 24 303 12 4 -2 87 -9 183 -15 96 -6 233 -20 305 -30
129 -19 344 -21 589 -6 149 9 252 15 425 24 91 5 179 15 195 21 17 7 41 13 55
15 13 1 26 8 28 14 2 6 8 11 13 11 14 0 49 38 49 53 0 7 5 18 12 25 7 7 8 12
2 12 -19 0 -7 46 25 95 l32 50 -6 145 c-6 168 -43 352 -82 411 -18 28 -25 55
-29 109 -4 71 -4 73 30 111 20 21 38 54 42 75 7 37 -1 292 -12 372 -9 66 0 89
36 90 17 0 30 -5 30 -11 0 -8 3 -9 8 -2 10 15 52 16 52 2 0 -9 2 -9 8 0 7 12
28 13 47 2 15 -9 290 -3 304 6 8 4 17 2 22 -6 5 -8 9 -9 9 -3 0 6 11 12 25 12
14 0 25 -6 25 -12 0 -6 4 -5 9 3 5 7 15 11 22 9 8 -3 21 -2 30 3 8 4 21 4 29
-1 8 -5 22 -4 33 1 12 7 22 7 32 -1 7 -6 15 -7 17 -2 4 12 123 25 298 33 8 0
29 5 45 9 57 17 125 21 125 7 0 -8 3 -8 9 2 5 7 14 10 20 7 6 -4 11 -2 11 3 0
14 137 15 145 1 4 -6 11 -7 17 -4 5 3 35 8 66 10 78 5 80 5 137 16 28 5 59 11
70 12 23 3 95 26 110 35 6 3 16 6 24 8 8 1 17 7 21 13 6 10 38 20 67 22 7 1
14 7 17 15 3 7 15 13 26 13 11 0 20 4 20 9 0 11 58 34 87 35 12 0 20 4 17 8
-3 4 -1 8 5 8 5 0 12 -3 14 -8 3 -4 31 -8 64 -10 38 -2 67 -10 85 -22 15 -11
35 -20 46 -20 10 0 23 -5 30 -12 7 -7 12 -8 12 -4 0 5 6 4 13 -2 7 -7 35 -14
61 -16 25 -3 61 -9 79 -15 18 -6 50 -12 72 -14 22 -1 46 -6 53 -11 6 -4 12 -4
12 1 0 4 11 8 25 8 14 0 25 -4 25 -8 0 -5 5 -5 11 -2 5 4 66 7 135 7 91 0 122
3 117 11 -5 9 -3 9 8 1 8 -5 34 -9 59 -6 25 2 71 4 102 5 32 1 58 5 58 9 0 4
8 6 18 6 36 -1 132 12 158 22 20 8 29 8 34 0 5 -8 9 -7 13 4 4 9 14 16 23 16
10 0 26 7 36 17 11 9 18 11 18 5 0 -7 5 -12 11 -12 5 0 8 4 5 8 -6 10 78 54
105 56 11 1 32 13 48 29 16 15 34 27 40 27 6 0 11 4 11 9 0 11 59 33 71 25 8
-5 13 10 10 29 -1 5 4 5 10 1 7 -4 17 0 23 8 12 15 46 32 59 29 5 -1 6 3 3 8
-8 12 44 62 57 54 6 -3 7 -1 3 6 -4 6 0 14 9 17 9 4 14 13 11 20 -3 8 1 14 10
14 11 0 15 6 11 20 -3 10 -2 19 2 18 17 -2 28 3 29 15 2 30 14 72 22 77 8 5
10 18 9 108 0 40 3 52 16 52 8 0 15 4 15 9 0 5 -8 7 -19 4 -10 -3 -21 0 -25 5
-4 6 -21 7 -47 1 -31 -7 -48 -6 -71 6 -17 8 -34 12 -38 10 -5 -3 -10 -2 -12 3
-4 9 -125 85 -150 95 -9 3 -66 39 -126 80 -121 83 -161 105 -254 141 -34 13
-92 37 -128 54 -326 151 -337 158 -370 222 -23 46 -70 197 -70 226 0 38 27 44
105 23 183 -50 224 -60 285 -65 114 -11 188 24 225 105 10 23 23 41 29 41 6 0
49 -13 95 -30 84 -29 101 -30 101 -5 0 7 6 20 13 27 6 7 12 24 13 38 0 14 4
45 8 70 8 48 13 129 20 326 l5 121 -82 22 c-45 12 -88 25 -95 29 -13 9 -21
118 -48 657 -9 182 -17 341 -18 354 -1 29 22 39 103 40 l54 1 -6 93 c-9 121
-10 131 -22 140 -6 4 -4 11 5 17 8 5 10 10 4 10 -11 0 -24 43 -25 81 -1 31
-44 135 -71 169 l-26 33 -70 -11 c-39 -7 -88 -12 -109 -13 -27 -1 -32 -3 -18
-7 47 -15 93 -62 104 -106 13 -52 27 -302 41 -736 6 -173 17 -436 25 -585 8
-148 18 -324 21 -390 4 -66 3 -160 -1 -208 -6 -73 -11 -93 -32 -117 l-25 -30
-140 0 -140 0 -43 38 c-51 45 -151 95 -220 111 -96 22 -263 29 -433 20 -92 -5
-295 -13 -452 -19 -157 -5 -355 -16 -440 -24 -312 -29 -547 -38 -800 -29 -243
9 -246 9 -293 36 -26 15 -47 31 -47 36 0 4 102 11 228 15 125 4 490 22 812 41
1042 61 1358 68 1520 32 81 -18 176 -66 236 -118 25 -21 50 -39 56 -39 30 0
78 35 94 68 19 40 20 6 -16 592 -6 85 -17 368 -25 628 -17 545 -22 593 -73
639 -47 43 -81 42 -157 -2 -276 -160 -445 -208 -790 -226 -104 -5 -401 -20
-660 -34 -624 -32 -695 -35 -695 -27 0 4 26 26 58 49 31 23 89 70 127 105 39
35 117 100 175 143 646 485 1348 1271 1650 1848 205 391 289 746 277 1167 -11
386 -97 700 -270 990 -114 189 -210 310 -350 438 -135 122 -306 243 -420 297
-242 113 -601 221 -852 255 -137 19 -353 23 -495 11 -389 -34 -690 -114 -950
-253 -197 -104 -501 -331 -750 -559 -68 -63 -167 -152 -220 -199 -52 -46 -158
-145 -235 -219 -254 -245 -290 -273 -397 -309 -51 -18 -127 -36 -167 -41 -81
-8 -101 -23 -101 -73 0 -40 21 -76 75 -128 26 -25 113 -121 193 -215 81 -93
248 -282 372 -420 124 -137 273 -304 333 -370 133 -148 209 -215 246 -215 68
0 97 59 81 166 -5 38 -10 141 -10 229 l0 160 46 69 c60 89 344 369 580 571
143 122 417 294 582 365 190 82 426 150 521 150 17 0 31 5 31 11 0 19 159 2
248 -26 88 -28 197 -99 249 -163 52 -64 101 -163 124 -248 17 -63 22 -107 22
-224 0 -137 -2 -149 -31 -225 -53 -142 -86 -197 -216 -360 -464 -582 -604
-716 -1636 -1560 -399 -326 -695 -572 -950 -790 -223 -190 -258 -217 -270
-213 -6 2 -24 27 -41 56 l-30 53 48 45 c83 77 732 624 941 792 46 37 141 114
210 172 70 58 174 143 232 190 58 46 125 102 150 124 25 23 95 81 155 131 61
49 142 119 181 155 39 36 124 113 190 171 225 201 419 406 549 579 36 49 -10
8 -186 -165 -391 -386 -764 -713 -786 -692 -5 6 20 85 70 219 24 65 25 78 3
78 -6 0 -4 -5 4 -10 10 -6 11 -10 3 -10 -12 0 -21 -7 -83 -64 -14 -13 -34 -26
-45 -30 -11 -4 -22 -8 -25 -9 -24 -10 -49 -53 -63 -109 -22 -87 -22 -85 14
-103 l31 -16 -45 -35 c-24 -19 -49 -45 -55 -58 -6 -14 -44 -49 -85 -80 -115
-85 -415 -325 -592 -476 -88 -74 -182 -153 -210 -175 -44 -35 -194 -163 -484
-413 -103 -90 -123 -99 -164 -75 -56 33 -70 78 -78 252 -11 222 -50 413 -124
606 -29 75 -29 56 -9 303 7 90 -16 269 -46 358 -11 31 -19 59 -17 61 2 1 35
-40 73 -92 38 -52 70 -91 72 -87 1 5 -5 38 -14 73 -9 35 -16 72 -17 82 -1 9
-5 17 -10 17 -5 0 -7 6 -4 14 3 8 -1 20 -8 26 -8 7 -12 16 -9 21 3 5 0 9 -5 9
-6 0 -10 3 -9 8 2 11 -21 62 -42 92 -11 15 -16 30 -13 34 4 3 -2 13 -13 21
-10 8 -16 15 -12 15 4 0 -4 12 -17 26 -15 16 -25 40 -26 58 -6 151 -18 287
-29 326 -6 21 -5 30 3 30 8 0 7 4 -2 9 -8 5 -11 16 -8 26 4 9 3 14 -3 10 -6
-4 -10 8 -10 29 0 19 -4 38 -10 41 -13 8 -13 45 0 45 5 0 14 -9 20 -20 6 -11
15 -20 20 -20 5 0 -2 30 -16 68 -44 115 -85 244 -80 250 13 12 64 -37 144
-140 186 -238 343 -419 482 -558 232 -232 374 -345 475 -376 59 -19 57 -15 95
-153 10 -38 14 -43 36 -38 14 2 24 -1 24 -7 0 -7 3 -7 8 -1 4 6 18 10 32 10
22 0 26 5 32 45 3 25 7 71 7 102 1 44 6 63 25 85 61 73 75 141 85 396 7 180 9
196 34 251 51 111 315 344 647 572 99 68 205 134 215 134 9 0 4 -86 -9 -146
-10 -49 -10 -61 0 -61 7 0 12 3 11 6 -1 3 1 6 4 6 4 0 15 7 25 16 16 14 54 32
62 30 1 -1 11 8 22 19 11 11 26 17 34 14 8 -3 25 3 37 15 12 11 27 18 32 14 6
-3 7 -2 4 3 -3 5 8 17 24 26 20 12 29 13 29 5 0 -8 3 -9 8 -1 10 15 57 27 117
30 28 1 56 3 62 3 7 1 38 53 69 117 l56 117 63 -6 c90 -9 220 -44 292 -79 108
-53 196 -165 210 -267 7 -51 -19 -163 -58 -251 -38 -86 -7 -45 38 50 40 85 72
179 74 219 5 83 -50 255 -106 331 -92 125 -249 225 -349 223 -195 -5 -557
-142 -825 -312 -224 -142 -357 -255 -651 -550 -155 -155 -212 -219 -232 -261
l-27 -55 15 -145 c19 -187 12 -320 -20 -357 -20 -23 -31 -26 -118 -31 -173 -9
-193 -1 -308 122 -30 33 -96 102 -145 155 -50 53 -176 193 -280 311 -105 118
-219 246 -255 285 -36 38 -103 117 -150 175 -47 58 -99 118 -115 135 -50 49
-53 56 -70 160 -9 55 -23 126 -31 159 -17 65 -11 111 14 121 9 4 49 11 87 16
39 5 111 24 162 42 71 27 102 44 139 81 l48 46 -59 -20 c-86 -30 -242 -68
-307 -76 -98 -12 -125 22 -190 244 -66 225 -172 491 -221 556 -14 19 -15 18
-21 -20 -5 -27 -1 -58 13 -99 10 -33 22 -100 25 -150 8 -107 18 -137 90 -276
30 -59 57 -122 60 -140 3 -19 12 -79 21 -134 8 -56 41 -188 72 -295 l56 -195
1 -215 c1 -208 0 -218 -26 -294 -26 -77 -26 -80 -12 -159 7 -44 18 -128 24
-186 14 -138 23 -169 67 -233 20 -29 56 -81 79 -115 48 -71 98 -209 119 -333
22 -134 38 -357 30 -452 -7 -99 -3 -111 68 -197 71 -84 88 -157 98 -420 7
-174 13 -237 33 -325 28 -121 40 -144 103 -200 80 -70 114 -169 131 -375 l9
-115 51 -45 c97 -87 198 -270 222 -400 6 -36 23 -81 38 -104 25 -37 27 -50 30
-155 l4 -114 42 -27 c88 -55 154 -73 355 -96 142 -17 199 -38 285 -109 31 -25
69 -48 84 -52 15 -3 54 -14 87 -25 33 -10 101 -22 151 -27 144 -14 204 -56
328 -229 27 -37 78 -93 114 -123 l65 -55 86 -6 c47 -3 118 -1 156 4 84 11 346
3 430 -13 33 -7 68 -19 77 -27 16 -15 22 -14 60 3 24 10 79 42 123 70 148 94
165 99 365 98 142 0 182 -3 214 -17 31 -14 46 -15 78 -7 21 6 115 11 209 11
161 0 173 -2 228 -26 75 -34 171 -130 206 -206 19 -44 26 -79 32 -162 l6 -107
46 0 c45 0 122 -28 135 -48 10 -16 113 -52 194 -68 136 -26 307 -114 352 -180
24 -36 25 -44 25 -188 0 -166 -8 -196 -62 -234 -33 -23 -48 -27 -184 -47 -251
-38 -438 -56 -634 -62 -295 -8 -357 7 -385 92 l-11 32 -172 5 c-150 4 -173 3
-181 -11 -5 -9 -25 -32 -45 -52 -33 -33 -44 -37 -126 -49 -49 -7 -126 -16
-170 -19 -69 -5 -80 -9 -83 -26 -2 -11 -15 -32 -28 -46 -22 -23 -36 -27 -108
-33 -46 -3 -2932 -7 -6412 -8 -6703 -3 -10957 -11 -11316 -23 -355 -12 -429 2
-470 85 -64 133 -146 1370 -99 1503 15 44 60 80 236 186 66 40 152 96 190 125
148 111 244 165 330 184 69 16 198 32 250 32 24 0 46 4 49 8 8 13 -37 558 -47
568 -1 2 -72 5 -157 9 -414 15 -649 39 -766 76 -95 30 -121 45 -192 113 -80
76 -94 152 -111 596 -14 346 7 941 34 1006 26 62 113 96 355 138 151 27 540
77 741 96 64 6 130 15 145 19 l29 7 6 310 c4 170 8 336 9 369 3 58 3 60 -21
58 -13 -1 -82 -7 -154 -14 -75 -7 -303 -12 -540 -13 -391 -1 -412 0 -449 19
-62 31 -92 78 -120 185 -43 168 -57 364 -57 795 0 453 29 810 69 865 20 26
102 64 175 80 23 5 78 19 122 30 44 11 193 40 330 65 138 25 291 54 340 64 50
10 137 26 194 35 57 9 105 17 107 19 1 1 7 225 13 497 6 272 16 520 21 550 17
97 42 162 77 197 145 144 805 293 1608 363 314 27 928 67 1225 80 292 12 755
38 825 45 161 16 1533 96 2025 117 382 16 2069 16 2715 0 915 -23 1177 -40
2475 -158 859 -77 1172 -113 1485 -170 449 -81 605 -124 654 -180 22 -25 31
-47 36 -91 9 -84 9 -83 62 -83 26 0 59 -3 72 -7 24 -6 24 -6 16 53 -5 41 -17
73 -39 107 -40 60 -152 174 -188 193 -31 16 -63 69 -52 86 5 7 0 9 -14 6 -12
-4 -25 -2 -28 4 -3 5 -12 7 -18 5 -7 -3 -32 -1 -57 4 -59 12 -62 13 -76 22 -7
4 -29 10 -50 13 -20 2 -40 8 -43 13 -3 4 -25 11 -49 14 -24 3 -47 9 -50 14 -3
4 -17 9 -31 10 -85 8 -129 17 -124 24 3 5 -2 9 -11 9 -9 0 -13 -4 -10 -10 6
-9 -16 -5 -40 8 -5 3 -29 7 -53 8 -25 1 -48 8 -53 15 -7 11 -9 11 -9 1 0 -8
-5 -10 -12 -5 -7 4 -22 8 -33 8 -32 2 -168 17 -190 22 -19 4 -55 7 -177 17
-124 11 -375 37 -401 42 -37 8 -58 11 -139 25 -37 6 -66 15 -63 19 2 4 -6 6
-18 5 -12 -1 -56 3 -97 10 -41 8 -78 11 -82 9 -5 -3 -8 -1 -8 5 0 5 -15 9 -32
9 -40 -2 -167 12 -188 19 -8 3 -33 7 -55 8 -249 15 -366 24 -376 31 -5 3 -9 1
-9 -4 0 -11 -32 -11 -41 1 -3 4 -17 3 -31 -2 -14 -5 -29 -7 -32 -4 -3 3 -162
7 -353 9 -356 3 -473 8 -502 23 -9 5 -19 9 -24 9 -4 1 -31 5 -60 11 -28 6 -73
12 -99 13 -27 1 -48 6 -48 12 0 8 -3 8 -8 1 -8 -13 -52 -17 -52 -6 0 4 -70 7
-156 7 -85 -1 -157 1 -159 4 -3 5 -97 4 -510 -3 -93 -1 -176 -6 -182 -10 -8
-5 -13 -3 -13 5 0 9 -3 9 -8 2 -4 -6 -16 -11 -27 -11 -11 0 -23 5 -27 11 -6 8
-10 8 -15 0 -15 -21 -623 -25 -623 -4 0 4 -12 7 -27 7 -16 0 -64 3 -108 7 -44
4 -100 6 -123 6 -24 -1 -42 3 -39 7 3 4 -50 9 -116 10 -325 7 -521 8 -617 3z
m-2915 -9978 c480 8 837 -8 951 -43 78 -24 150 -80 189 -147 17 -29 33 -52 38
-52 4 0 7 45 7 100 0 93 1 100 23 112 30 16 668 18 688 1 10 -8 68 -8 204 -1
105 5 287 7 405 4 211 -6 216 -7 274 -35 l59 -29 27 19 c22 17 53 21 211 30
101 6 249 9 329 7 80 -1 201 3 270 10 98 10 149 10 235 0 61 -7 250 -13 420
-13 171 -1 438 -2 595 -3 157 -1 436 1 620 4 423 7 864 -6 885 -27 22 -22 39
-259 29 -409 l-9 -125 -42 -3 c-50 -4 -50 1 -28 -147 8 -55 15 -119 15 -143 0
-27 5 -45 14 -48 21 -8 25 -23 36 -147 6 -62 20 -165 31 -231 23 -132 19 -212
-9 -220 -76 -23 -191 -28 -665 -31 l-517 -2 -25 23 c-23 21 -25 30 -25 105 l0
82 42 40 c48 45 46 31 30 252 -6 83 -16 242 -22 355 -19 349 -45 471 -45 210
0 -117 -3 -162 -13 -172 -9 -9 -43 -13 -107 -13 l-94 0 -34 38 c-19 20 -40 37
-46 37 -13 0 -13 5 -1 -344 10 -272 11 -281 38 -340 23 -52 27 -74 27 -153 0
-61 -4 -96 -13 -105 -9 -9 -86 -15 -275 -21 -257 -9 -410 -4 -437 13 -9 6 -15
36 -18 97 -4 81 -2 95 23 148 51 113 58 162 51 360 -3 99 -9 220 -12 269 l-7
88 -56 -6 c-36 -4 -61 -13 -69 -24 -40 -55 -37 -54 -145 -50 l-102 3 -1 -250
c-2 -426 -11 -476 -114 -583 -33 -35 -76 -70 -96 -78 -88 -37 -421 -36 -509 1
-55 23 -121 79 -163 138 l-35 49 -12 -29 c-18 -42 -88 -101 -166 -138 l-69
-33 -242 -7 c-385 -13 -1126 -22 -1248 -17 -19 1 -260 -3 -535 -9 -512 -10
-650 -7 -682 16 -15 11 -18 28 -18 102 0 72 4 97 24 138 25 54 25 44 21 355
-1 113 3 277 9 365 13 181 1 296 -39 360 -12 19 -22 35 -23 35 -1 0 -1 -69 1
-153 2 -105 -1 -165 -10 -192 -12 -37 -16 -41 -58 -47 -25 -3 -69 -4 -99 -1
-45 5 -62 13 -103 50 -58 51 -93 58 -84 16 3 -16 10 -118 16 -228 19 -367 18
-360 60 -413 20 -26 50 -61 67 -77 35 -35 50 -111 38 -195 -6 -43 -11 -50 -41
-65 -50 -23 -245 -37 -544 -37 -311 0 -332 4 -342 72 -3 25 -4 78 -1 119 6 69
8 75 36 90 17 9 46 30 65 47 41 36 40 18 28 447 -7 241 -10 267 -25 263 -9 -3
-32 -8 -52 -11 -24 -5 -50 -20 -75 -46 -43 -44 -85 -54 -179 -42 -50 7 -62 12
-72 34 -19 39 -36 327 -28 472 7 116 9 129 29 139 28 16 467 27 846 21 162 -2
376 -3 475 -1z m7896 -12 c161 -12 234 -32 366 -101 88 -46 98 -49 168 -49
l76 0 5 30 c4 16 11 34 18 39 26 20 980 46 1048 28 18 -5 30 -16 34 -33 4 -15
10 -21 14 -15 13 22 77 32 305 47 309 20 392 11 410 -47 7 -21 8 -21 27 9 22
36 26 36 295 52 148 8 388 0 412 -14 3 -2 49 0 101 5 52 4 319 13 594 19 415
10 501 9 512 -2 18 -18 50 -401 40 -481 -8 -61 -9 -62 -66 -71 l-35 -6 3 -97
c4 -160 10 -200 32 -206 11 -3 24 -17 30 -32 36 -95 61 -498 33 -526 -30 -30
-535 -55 -893 -44 -140 4 -293 5 -340 3 -47 -1 -203 -3 -348 -3 -223 0 -264 2
-272 15 -5 8 -10 52 -10 97 0 70 3 85 20 101 21 19 21 19 -20 26 -22 3 -57 4
-78 0 l-38 -6 4 -91 c5 -108 -7 -131 -73 -148 -22 -6 -161 -12 -310 -14 -148
-1 -308 -9 -355 -15 -47 -7 -162 -13 -257 -14 -167 -1 -172 0 -196 22 -14 13
-28 36 -32 50 -6 25 -7 25 -25 -15 -30 -67 -71 -82 -253 -94 -105 -8 -201 -7
-312 0 -193 13 -602 25 -665 20 -25 -2 -108 -3 -185 -3 -163 2 -245 18 -352
69 -110 54 -161 109 -231 256 -83 172 -92 207 -99 389 -7 188 5 296 47 416 36
104 76 174 142 249 63 70 129 111 241 147 137 45 249 54 468 38z m-7959 -855
l38 7 1 -54 c2 -105 10 -246 17 -309 4 -35 5 -75 2 -89 l-6 -25 -8 24 c-5 14
-39 54 -76 90 -37 36 -70 75 -74 86 -3 11 -8 69 -11 128 -2 60 -7 113 -11 118
-3 6 -3 16 -1 24 5 10 15 11 48 4 24 -6 60 -7 81 -4z m5263 -275 c-1 -22 -15
-54 -33 -79 -18 -24 -37 -63 -43 -85 l-11 -41 -24 47 c-22 43 -24 56 -20 155
3 59 5 117 5 128 1 11 27 47 58 80 l58 60 6 -115 c4 -63 6 -131 4 -150z"/>
<path d="M5168 6221 c-129 -4 -191 -10 -199 -18 -7 -7 -15 -41 -17 -75 -4 -75
17 -363 29 -395 12 -33 50 -29 98 11 28 23 57 37 89 43 56 9 198 10 206 2 7
-6 17 -338 19 -615 2 -209 0 -216 -78 -268 -41 -27 -54 -42 -57 -66 -3 -17 0
-37 6 -45 27 -35 200 -44 506 -24 265 16 298 43 194 161 -94 107 -88 79 -109
528 -15 310 -15 325 2 338 10 7 27 11 38 8 11 -3 49 -6 85 -6 61 -1 68 -3 110
-40 56 -51 76 -51 97 -2 13 31 15 65 9 227 -4 104 -12 197 -16 206 -5 9 -24
20 -42 23 -47 9 -749 14 -970 7z m938 -158 c-3 -42 -6 -100 -6 -129 l0 -52
-37 10 c-43 12 -224 5 -264 -11 -20 -7 -28 -19 -32 -48 -21 -124 8 -785 36
-839 8 -16 29 -47 47 -69 l32 -40 -69 -6 c-37 -4 -140 -7 -227 -8 -151 -1
-158 0 -144 17 9 9 24 33 34 52 16 32 17 63 15 340 -1 168 -6 367 -10 444 -9
183 -4 177 -184 169 -117 -5 -160 -12 -218 -37 -14 -6 -18 2 -24 54 -13 112
-21 221 -16 225 2 3 245 5 539 5 l535 0 -7 -77z"/>
<path d="M6520 6226 c-3 -2 -50 -6 -105 -7 -146 -4 -155 -18 -71 -109 37 -41
57 -72 65 -103 12 -52 14 -309 2 -492 -5 -66 -4 -219 1 -339 10 -233 6 -271
-34 -353 -26 -51 -20 -69 29 -82 41 -12 390 -15 443 -5 l32 7 -6 61 c-3 34 -8
117 -12 186 l-6 125 32 -31 c39 -38 79 -150 90 -252 4 -41 12 -78 17 -83 24
-24 382 -18 448 7 25 10 11 88 -26 139 -31 44 -49 110 -44 165 5 70 -13 196
-38 250 -22 50 -74 108 -122 136 -17 10 -16 13 22 47 89 80 137 237 115 367
-30 170 -133 282 -298 325 -75 19 -521 54 -534 41z m301 -111 c233 -22 320
-55 377 -140 40 -60 56 -131 49 -215 -8 -93 -39 -150 -131 -238 -73 -70 -90
-102 -63 -119 6 -4 37 -16 67 -26 71 -24 116 -68 136 -132 8 -27 17 -108 21
-179 5 -113 10 -136 33 -183 l27 -53 -119 -1 c-65 -1 -124 -2 -130 -3 -8 -1
-17 27 -24 79 -14 96 -42 173 -79 217 -41 49 -103 88 -141 88 -63 0 -78 -59
-64 -245 5 -65 8 -120 7 -121 -1 -1 -68 -5 -149 -9 l-148 -7 15 36 c13 32 14
106 8 594 l-8 557 -27 58 -27 57 108 0 c59 0 177 -7 262 -15z"/>
<path d="M6848 5905 c-23 -13 -27 -23 -33 -81 -10 -87 -1 -192 17 -211 9 -8
43 -16 84 -19 60 -4 74 -2 109 18 46 27 75 77 75 129 0 53 -47 138 -90 160
-42 23 -124 24 -162 4z"/>
<path d="M7506 6188 c-21 -12 -22 -158 -1 -538 17 -330 38 -778 38 -833 0 -65
9 -68 294 -70 223 -1 253 0 276 16 15 10 27 24 27 32 0 8 -33 48 -74 89 -41
41 -82 89 -91 107 -34 64 -61 569 -46 855 l9 178 29 25 c17 15 44 38 62 53 36
30 42 72 12 88 -24 12 -512 11 -535 -2z m361 -92 c2 -2 -3 -16 -11 -32 -32
-64 -30 -566 3 -964 9 -107 34 -176 83 -227 l31 -32 -27 -7 c-15 -3 -92 -3
-171 1 l-145 7 0 72 c1 143 -44 1065 -56 1151 l-6 40 149 -3 c81 -2 149 -5
150 -6z"/>
<path d="M9896 6189 c-32 -5 -65 -14 -72 -20 -11 -9 -14 -51 -14 -193 -1 -250
-17 -596 -29 -629 -12 -32 -27 -28 -43 11 -6 16 -16 185 -23 404 -11 348 -13
380 -31 399 -19 21 -23 22 -234 15 -251 -7 -279 -12 -300 -48 -14 -26 -13 -29
12 -55 50 -52 59 -91 69 -302 22 -460 52 -680 110 -798 36 -75 103 -144 173
-181 45 -23 65 -27 167 -30 167 -6 210 8 295 96 107 110 107 108 114 642 8
479 10 502 65 606 30 56 22 79 -32 88 -50 8 -153 6 -227 -5z m159 -96 c-50
-119 -64 -284 -65 -753 0 -273 -5 -305 -64 -393 -48 -72 -65 -80 -175 -85
-128 -6 -187 9 -246 60 -83 73 -114 155 -155 408 -5 30 -14 179 -20 330 -11
275 -19 339 -44 389 l-14 26 174 4 174 3 1 -158 c0 -88 4 -249 8 -359 6 -171
10 -207 29 -247 36 -82 126 -115 177 -64 44 44 48 79 52 479 l5 377 85 0 c77
0 84 -2 78 -17z"/>
<path d="M8233 6179 c-51 -4 -102 -13 -114 -19 -33 -18 -21 -52 28 -74 29 -13
45 -28 53 -49 21 -62 29 -216 35 -688 l7 -487 -31 -21 c-32 -23 -39 -49 -19
-69 15 -15 612 -17 700 -3 79 13 164 57 225 116 67 65 88 129 87 270 0 87 -3
107 -26 157 -25 55 -127 170 -157 180 -10 3 -2 17 28 48 49 51 86 118 101 185
32 141 -85 362 -228 432 l-57 28 -270 1 c-148 1 -312 -2 -362 -7z m635 -104
c80 -33 173 -164 187 -266 14 -97 -39 -188 -150 -258 -36 -23 -65 -45 -65 -49
0 -8 57 -42 71 -42 5 0 40 -25 78 -57 85 -69 119 -127 128 -215 6 -68 -15
-173 -43 -216 -24 -37 -130 -100 -177 -106 -23 -3 -159 -7 -302 -10 l-260 -5
-1 47 c-1 26 -6 270 -12 542 -11 482 -15 581 -28 627 -6 22 -3 22 87 26 52 2
173 3 269 2 138 -2 184 -6 218 -20z"/>
<path d="M8663 5909 c-16 -16 -18 -241 -3 -270 6 -10 27 -26 48 -35 30 -13 44
-13 77 -4 124 36 178 129 123 210 -45 65 -212 133 -245 99z"/>
<path d="M8740 5245 c-15 -18 -29 -249 -17 -271 18 -31 147 -11 205 32 62 48
82 136 42 187 -41 52 -200 88 -230 52z"/>
<path d="M10348 6171 c-59 -4 -102 -11 -110 -19 -18 -18 -14 -393 5 -431 19
-41 60 -40 84 2 18 30 27 35 74 40 30 4 93 7 140 7 l86 0 7 -87 c3 -49 11
-191 16 -318 11 -260 5 -320 -41 -431 -17 -40 -29 -86 -27 -101 l3 -28 248 -3
c136 -1 262 1 280 6 42 11 45 35 13 115 -32 79 -35 109 -41 417 -3 140 -8 291
-11 336 l-6 81 59 6 c91 10 129 0 171 -44 42 -46 56 -48 78 -14 15 23 16 43 5
207 -14 211 -23 242 -80 258 -38 10 -776 11 -953 1z m928 -94 c1 -1 4 -54 5
-117 l4 -116 -40 14 c-48 17 -164 11 -218 -11 -44 -19 -52 -51 -43 -170 3 -45
8 -201 12 -347 5 -244 11 -332 29 -401 l6 -26 -78 -6 c-43 -4 -119 -7 -169 -7
l-91 -1 26 73 c26 72 26 77 23 317 -2 245 -22 505 -42 541 -22 42 -49 50 -162
50 -59 0 -130 -5 -158 -11 -28 -6 -53 -9 -55 -7 -2 1 -5 55 -7 118 l-3 115
480 -3 c264 -2 480 -4 481 -5z"/>
<path d="M11497 6166 c-79 -19 -83 -60 -8 -90 22 -8 47 -26 55 -38 21 -32 33
-123 45 -353 7 -110 17 -279 24 -375 6 -96 12 -218 12 -271 l0 -96 -44 -48
-43 -47 20 -21 c21 -20 27 -21 474 -18 349 2 469 6 522 17 39 8 71 16 73 18 2
2 -1 23 -6 47 -9 42 -22 150 -36 302 -6 59 -10 70 -31 79 -29 13 -55 -5 -74
-53 -7 -17 -25 -36 -39 -44 -25 -12 -218 -41 -226 -33 -8 7 -31 229 -25 233 3
2 44 7 91 11 83 6 87 6 140 -25 108 -60 125 -41 104 115 -14 98 -29 195 -39
249 -3 11 -5 23 -5 26 -3 23 -36 13 -76 -21 l-46 -40 -98 0 -98 0 -7 31 c-3
17 -6 47 -6 65 l0 34 178 0 c177 0 179 0 202 -25 13 -14 34 -25 48 -25 l24 0
-4 180 c-3 156 -5 182 -21 197 -15 15 -43 19 -180 25 -268 10 -846 7 -900 -6z
m941 -89 l82 0 0 -46 c0 -25 3 -62 6 -81 l6 -35 -164 0 c-170 -1 -278 -16
-300 -42 -14 -17 -13 -94 3 -156 6 -23 12 -55 13 -70 2 -15 8 -33 15 -40 18
-18 258 -16 290 2 31 17 37 7 39 -74 l2 -64 -32 11 c-33 12 -190 -3 -249 -24
-39 -13 -43 -35 -36 -197 11 -241 2 -229 169 -212 67 7 144 21 172 32 27 10
51 17 53 16 3 -3 33 -156 33 -168 0 -15 -109 -21 -441 -24 -195 -1 -366 -6
-378 -10 -21 -6 -22 -5 -14 17 16 45 4 427 -27 833 -14 195 -27 280 -46 317
l-16 31 369 -8 c202 -4 405 -8 451 -8z"/>
<path d="M8054 5982 c-35 -29 -45 -58 -39 -109 3 -27 2 -70 -4 -98 -10 -51 0
-368 18 -573 11 -116 28 -155 95 -213 l38 -33 -6 209 c-4 116 -11 334 -16 485
-7 267 -15 324 -43 342 -16 10 -19 10 -43 -10z"/>
<path d="M13820 6191 c-97 -21 -176 -52 -236 -93 -67 -45 -150 -144 -193 -232
-62 -125 -84 -218 -85 -366 0 -156 13 -211 99 -386 53 -110 72 -139 117 -178
103 -90 242 -137 407 -137 71 0 116 6 156 19 53 18 58 18 90 2 39 -20 303 -36
405 -24 90 10 113 44 70 104 -20 27 -20 33 -7 202 12 152 17 179 40 225 55
107 54 108 -255 118 -293 10 -326 9 -344 -6 -22 -18 -16 -50 13 -81 l26 -28
-36 -15 c-79 -33 -182 -13 -244 47 -55 53 -65 163 -24 269 15 40 71 100 108
115 65 27 188 11 300 -41 55 -25 60 -33 80 -145 11 -62 36 -64 86 -8 109 123
283 369 304 431 21 59 8 68 -88 60 l-80 -6 -132 67 c-148 74 -213 91 -387 100
-81 5 -124 2 -190 -13z m385 -110 c39 -11 118 -45 178 -76 59 -30 120 -55 135
-55 62 -1 58 -12 -39 -138 -52 -66 -96 -121 -99 -121 -3 -1 -15 15 -27 33 -44
67 -269 146 -377 131 -168 -22 -275 -162 -276 -360 0 -127 48 -206 163 -267
56 -30 203 -32 257 -4 50 26 88 64 95 95 l6 27 177 -4 c97 -2 178 -6 180 -7 2
-2 -1 -12 -7 -23 -12 -23 -30 -202 -33 -331 l-2 -91 -128 0 -127 0 15 35 c17
42 17 40 -2 59 -20 21 -26 20 -54 -4 -13 -11 -62 -33 -109 -48 -150 -47 -355
-32 -469 34 -150 88 -238 266 -249 504 -6 135 15 237 72 349 81 161 159 224
340 277 71 20 286 12 380 -15z"/>
<path d="M17980 6169 c-374 -7 -618 -20 -641 -35 -6 -3 -15 -17 -20 -31 -8
-23 -4 -32 30 -73 58 -68 91 -184 91 -316 0 -108 26 -538 36 -591 4 -19 -3
-71 -17 -129 -22 -91 -22 -97 -6 -109 39 -28 445 -31 822 -4 200 14 195 11
195 99 0 84 -26 263 -43 299 -18 37 -47 37 -85 0 -38 -37 -77 -47 -192 -50
l-85 -2 -6 44 c-4 24 -9 69 -13 100 l-7 57 101 7 c98 7 102 6 140 -19 47 -31
52 -31 73 -8 13 15 17 38 16 108 0 94 -12 230 -19 237 -3 2 -19 7 -37 10 -23
5 -40 0 -66 -17 -34 -23 -132 -46 -199 -46 -32 0 -36 3 -42 31 -3 17 -6 46 -6
64 0 31 2 33 46 39 26 3 100 6 166 6 112 0 120 -1 141 -23 47 -51 91 -56 106
-13 10 27 -17 347 -31 363 -6 7 -20 12 -32 11 -11 -1 -199 -5 -416 -9z m384
-160 c4 -45 5 -83 4 -84 -2 -1 -41 2 -88 7 -89 10 -230 4 -290 -12 -20 -5 -46
-19 -59 -31 -23 -22 -24 -26 -17 -128 9 -144 15 -151 114 -151 69 1 167 16
230 35 21 7 22 5 22 -56 l0 -64 -144 -1 c-103 0 -149 -4 -160 -13 -19 -16 -22
-153 -5 -264 12 -82 34 -113 84 -123 46 -8 242 13 277 30 34 18 34 18 43 -81
l6 -73 -25 0 c-14 0 -103 -4 -198 -10 -95 -5 -269 -12 -385 -15 l-213 -5 12
27 c36 88 -21 895 -72 1009 -25 58 -20 63 70 65 36 1 214 5 395 8 182 4 344 8
361 9 l31 2 7 -81z"/>
<path d="M15505 6155 c-11 -4 -581 -28 -631 -26 -33 2 -47 -10 -58 -46 -6 -17
3 -36 36 -79 41 -54 43 -62 46 -134 4 -72 -17 -307 -57 -655 -18 -155 -20
-164 -65 -252 -37 -75 -45 -98 -39 -125 3 -18 10 -38 15 -45 26 -33 354 -21
428 15 48 24 65 65 88 215 10 70 21 129 23 131 2 2 21 6 41 9 l36 5 7 -51 c9
-67 42 -214 57 -250 21 -53 76 -62 258 -43 154 17 223 35 228 60 7 34 -9 68
-53 115 -50 53 -57 77 -94 296 -12 66 -33 163 -47 215 -24 86 -27 112 -28 280
l-1 185 33 58 c36 62 38 101 4 111 -24 7 -215 16 -227 11z m114 -137 c-15 -43
-18 -84 -18 -213 0 -163 10 -244 48 -381 11 -40 31 -142 46 -229 26 -161 38
-196 74 -229 12 -11 21 -22 21 -26 0 -8 -260 -33 -268 -26 -2 3 -17 61 -33
128 -15 68 -34 141 -42 163 -13 37 -18 41 -58 47 -54 8 -127 0 -155 -17 -16
-11 -27 -44 -53 -167 -18 -84 -35 -158 -36 -164 -4 -15 -47 -22 -193 -30
l-123 -7 39 62 c30 45 43 79 51 129 23 145 43 328 61 563 21 268 18 333 -20
395 l-22 34 194 1 c106 1 243 5 303 9 61 3 131 7 156 8 l46 2 -18 -52z"/>
<path d="M15270 5831 c-30 -8 -43 -52 -62 -204 -16 -132 -16 -133 98 -129 145
6 151 17 95 168 -63 166 -75 181 -131 165z"/>
<path d="M16775 6147 l-90 -12 -25 -45 c-13 -25 -34 -72 -46 -104 l-21 -59
-41 69 c-22 38 -54 88 -71 112 l-31 42 -83 0 c-115 0 -354 -18 -398 -30 -20
-6 -40 -17 -43 -26 -6 -17 -3 -25 54 -128 l33 -58 -7 -122 c-4 -66 -11 -269
-16 -451 -8 -316 -12 -360 -43 -423 -9 -18 -7 -26 7 -40 15 -15 42 -17 239
-17 292 0 309 7 273 108 -12 36 -9 91 9 164 l5 22 26 -26 c24 -24 30 -25 110
-22 l85 4 33 39 33 39 31 -76 c18 -41 32 -86 32 -100 0 -13 -16 -42 -35 -64
-40 -47 -40 -47 -19 -67 13 -13 41 -16 162 -15 152 1 343 12 399 24 53 12 53
40 -2 95 -48 49 -85 137 -85 203 0 18 -15 113 -34 212 -39 206 -76 452 -76
509 0 59 20 112 58 156 39 46 39 84 0 93 -45 9 -335 5 -423 -6z m-298 -199
c33 -68 64 -134 68 -148 11 -37 25 -50 51 -50 30 0 47 27 74 120 12 41 34 101
48 133 l25 57 45 0 c25 0 101 2 169 5 136 5 137 5 103 -57 -19 -36 -19 -42 -4
-200 17 -185 54 -424 89 -566 12 -54 30 -126 38 -162 8 -36 18 -73 22 -82 6
-16 -2 -18 -84 -20 -183 -4 -159 -13 -190 67 -15 39 -52 126 -83 195 -31 69
-59 137 -62 153 -5 21 -12 27 -31 27 -28 0 -25 5 -72 -135 l-30 -90 -42 0 -42
0 -28 70 c-16 39 -32 84 -35 102 -10 43 -29 58 -55 43 -17 -8 -21 -20 -21 -58
0 -26 -5 -63 -10 -82 -22 -74 -43 -178 -49 -245 l-6 -70 -148 -5 -149 -5 7 30
c20 99 26 220 27 551 0 322 -2 378 -17 430 -9 32 -21 65 -27 71 -15 18 -3 20
177 31 88 5 165 9 171 10 6 1 38 -53 71 -120z"/>
<path d="M15801 5939 l-33 -60 7 -102 c4 -61 20 -155 40 -232 18 -71 38 -166
45 -210 19 -139 31 -189 41 -174 5 8 9 127 10 264 0 138 4 286 8 330 8 77 7
82 -22 135 -16 30 -36 67 -44 83 -8 15 -15 27 -16 27 -2 0 -17 -27 -36 -61z"/>
<path d="M17240 5925 c-13 -41 3 -177 52 -425 16 -85 36 -198 44 -251 13 -97
30 -149 47 -149 5 0 6 24 3 58 -16 144 -26 308 -26 437 0 126 -3 149 -29 233
-27 86 -52 132 -72 132 -4 0 -13 -16 -19 -35z"/>
<path d="M14746 5840 c-21 -33 -79 -116 -131 -184 l-93 -124 122 -8 c66 -5
126 -8 131 -9 10 0 16 46 30 250 7 92 5 112 -7 123 -13 10 -21 3 -52 -48z"/>
<path d="M13985 5651 c-41 -25 -61 -49 -85 -104 -24 -55 -20 -69 37 -116 l38
-32 9 53 c4 29 12 58 17 64 5 7 57 15 114 19 58 4 105 10 105 15 0 15 -43 61
-72 76 -26 14 -114 44 -128 44 -3 0 -18 -8 -35 -19z"/>
<path d="M8835 15929 c-374 -12 -741 -28 -1090 -49 -176 -11 -439 -26 -585
-35 -146 -8 -391 -24 -545 -35 -154 -11 -314 -22 -355 -25 -41 -3 -231 -12
-422 -20 -548 -23 -1187 -68 -1573 -110 -707 -77 -1277 -225 -1360 -352 -62
-94 -75 -224 -78 -782 l-2 -440 -45 -10 c-25 -6 -103 -20 -175 -31 -71 -11
-155 -27 -185 -35 -57 -14 -260 -52 -460 -86 -63 -11 -144 -28 -180 -39 -36
-11 -91 -27 -122 -35 -81 -22 -124 -62 -137 -128 -39 -190 -53 -823 -26 -1127
31 -341 82 -441 236 -459 87 -11 614 5 794 24 83 8 186 15 229 15 l79 0 -7
-72 c-3 -40 -9 -256 -13 -480 -5 -348 -8 -408 -21 -413 -8 -3 -76 -12 -151
-20 -511 -54 -877 -110 -1000 -154 -93 -32 -116 -61 -128 -159 -4 -37 -8 -278
-8 -537 1 -620 11 -692 115 -789 126 -118 295 -151 850 -165 l255 -6 12 -90
c7 -49 17 -189 23 -310 6 -121 14 -259 18 -306 l8 -87 -126 -12 c-224 -22
-297 -50 -496 -194 -50 -35 -160 -108 -245 -161 -186 -117 -204 -134 -213
-207 -7 -57 8 -419 25 -598 5 -58 14 -168 19 -245 12 -173 46 -380 69 -420 9
-16 32 -38 51 -50 47 -27 197 -31 530 -14 205 10 1837 13 8340 12 4447 0 8322
2 8612 6 l526 6 25 23 c14 13 28 34 31 47 5 19 14 25 49 29 166 19 293 39 308
46 9 5 33 33 54 61 l37 51 71 -6 c40 -3 162 -9 273 -12 l200 -6 15 -41 c32
-92 133 -105 504 -63 427 48 493 65 531 138 23 45 14 118 -20 163 -49 64 -208
140 -365 174 -52 11 -114 33 -140 47 -92 53 -120 64 -169 64 l-50 0 -4 113
c-5 132 -18 165 -109 268 -109 123 -233 152 -407 96 -106 -35 -129 -34 -204 6
-53 27 -72 32 -132 32 -89 -1 -154 -23 -248 -84 -113 -74 -218 -121 -306 -136
-39 -6 -46 -4 -81 28 -45 40 -102 56 -231 64 -58 3 -106 0 -152 -11 -53 -12
-83 -13 -150 -6 -45 6 -116 10 -155 10 l-73 0 -67 57 c-83 70 -100 89 -159
176 -84 122 -168 174 -296 183 -46 4 -108 14 -138 24 -30 10 -74 23 -97 29
-26 7 -65 31 -99 61 -68 60 -118 78 -254 91 -58 6 -123 17 -145 25 -23 8 -56
14 -74 14 -53 0 -231 99 -231 129 0 5 7 28 15 51 24 67 19 126 -14 185 -16 29
-35 81 -41 116 -21 119 -103 263 -212 376 l-61 61 -7 119 c-13 198 -41 275
-130 364 -70 69 -81 92 -111 231 -16 76 -24 155 -29 303 -8 229 -24 311 -76
384 -18 25 -46 64 -61 85 l-28 39 -6 246 c-6 253 -15 321 -61 469 -28 92 -50
133 -124 233 -53 72 -67 99 -84 165 -11 43 -20 102 -20 129 0 28 -11 117 -25
199 -14 83 -25 164 -25 181 0 17 16 87 36 155 34 116 36 130 31 224 -4 75 -15
135 -42 231 -53 184 -83 316 -94 417 -5 48 -19 108 -30 135 -11 26 -25 93 -30
148 -25 231 -31 158 -25 -301 5 -318 3 -463 -4 -468 -6 -3 -8 -21 -6 -39 4
-22 -2 -47 -18 -77 -22 -44 -25 -45 -83 -53 -94 -13 -241 -1 -278 22 -18 11
-75 64 -127 118 -112 115 -172 151 -268 164 -54 6 -640 -6 -648 -14 -1 -1 4
-101 11 -222 17 -283 33 -807 40 -1345 14 -1040 60 -2011 124 -2630 6 -52 13
-140 16 -195 4 -55 15 -149 25 -210 10 -60 21 -142 24 -182 14 -166 139 -475
275 -678 61 -91 93 -127 295 -333 l111 -114 0 -124 c-1 -100 -4 -127 -17 -140
-14 -14 -75 -17 -495 -25 -263 -5 -721 -16 -1018 -24 -620 -18 -1665 -39
-1930 -38 -197 0 -258 12 -314 59 -24 20 -29 33 -35 94 -4 38 -4 102 0 141 6
68 9 74 63 138 31 36 69 85 85 108 16 24 82 101 147 172 179 197 212 253 317
532 89 236 83 184 94 839 13 774 -6 1742 -52 2670 -6 113 -13 484 -16 825 -3
341 -7 629 -9 641 -4 20 -13 21 -162 27 -86 4 -158 5 -160 3 -2 -1 12 -68 31
-147 19 -79 44 -196 56 -259 39 -217 48 -250 78 -275 25 -21 27 -28 25 -91 -2
-37 -7 -70 -12 -73 -9 -6 -7 -53 24 -381 12 -128 17 -297 17 -630 2 -526 -6
-811 -30 -1067 -9 -100 -14 -192 -11 -205 6 -19 7 -18 8 10 1 40 29 139 40
147 5 2 11 -12 15 -33 7 -37 25 -341 26 -418 l0 -41 -57 -7 c-47 -5 -60 -4
-69 9 -10 13 -15 -1 -28 -72 -24 -130 -23 -133 22 -133 21 0 59 -7 85 -16 l47
-16 1 -86 c6 -509 -28 -886 -96 -1067 -29 -77 -84 -188 -99 -197 -12 -9 -426
-11 -426 -3 0 3 22 36 49 73 133 184 200 352 265 657 14 66 39 172 55 235 35
135 84 376 79 390 -2 5 -14 -38 -27 -98 -13 -59 -37 -156 -53 -217 -17 -60
-36 -137 -43 -170 -7 -33 -22 -87 -34 -120 -11 -33 -23 -78 -27 -100 -18 -122
-111 -333 -215 -487 -230 -341 -516 -558 -949 -721 -157 -59 -210 -73 -310
-82 -36 -3 -158 -19 -271 -36 -159 -22 -461 -47 -604 -49 -6 0 -9 -46 -6 -125
4 -161 -3 -180 -73 -200 -144 -41 -728 -57 -2009 -55 -236 0 -431 -2 -435 -4
-4 -2 -122 -1 -262 3 -288 9 -313 15 -325 73 -4 18 -13 40 -20 48 -7 8 -21 44
-30 80 -25 97 -92 330 -130 455 -69 223 -193 732 -249 1020 -25 133 -79 496
-91 617 -4 41 -12 68 -20 71 -7 3 -82 2 -166 -3 -85 -5 -161 -9 -170 -10 -13
0 -27 -42 -65 -197 -26 -109 -49 -207 -51 -218 -2 -11 -27 -108 -55 -215 -28
-107 -57 -220 -63 -250 -7 -30 -36 -147 -65 -260 -28 -113 -60 -243 -71 -289
-10 -46 -25 -109 -34 -140 -23 -88 -84 -349 -90 -384 -3 -18 -15 -65 -25 -105
-11 -40 -20 -81 -20 -92 0 -12 -9 -47 -19 -78 -43 -126 -33 -141 40 -64 142
150 175 230 268 652 22 102 44 205 48 230 l9 45 281 3 282 2 10 -37 c6 -21 22
-87 36 -148 62 -262 214 -712 270 -796 l24 -36 -51 -9 -51 -9 27 -32 28 -33
-639 1 c-410 0 -630 4 -614 10 34 14 81 49 81 61 0 7 -23 8 -67 4 -90 -8
-1007 -24 -1903 -32 -854 -8 -1066 3 -1131 55 -28 23 -46 159 -33 257 l9 68
100 62 c77 48 127 90 215 181 64 65 128 134 142 153 65 86 239 428 348 686 22
50 64 189 95 310 100 390 146 558 161 594 50 121 577 2209 698 2770 93 430
132 631 221 1145 80 470 79 455 65 571 -54 463 -156 848 -311 1169 l-43 90 0
131 c-1 92 3 136 12 147 20 23 92 37 199 37 54 0 222 7 373 15 151 8 462 21
690 30 228 8 528 20 665 25 700 29 1916 30 1985 2 14 -5 44 -15 68 -21 67 -18
75 -39 74 -194 0 -128 -1 -135 -33 -207 -18 -41 -67 -124 -108 -185 -90 -133
-113 -183 -155 -328 l-33 -112 15 -93 c8 -50 19 -92 24 -92 5 0 15 15 23 34
45 108 221 350 332 457 37 36 104 95 148 131 71 56 97 75 180 125 65 40 313
156 388 182 290 101 572 141 987 141 345 0 571 -21 818 -76 64 -14 149 -30
188 -34 39 -5 98 -19 131 -32 66 -27 223 -123 264 -162 l26 -24 7 121 c3 66 6
150 6 186 0 80 7 108 28 116 91 37 2192 34 4057 -5 264 -6 510 -13 548 -16 77
-7 85 3 41 55 -44 52 -208 96 -654 175 -348 61 -792 112 -1530 176 -69 6 -217
19 -330 30 -178 17 -553 47 -995 80 -604 45 -2611 74 -3390 49z m795 -256 c0
-60 -3 -138 -7 -175 l-6 -68 -43 0 c-119 0 -446 -59 -669 -121 -288 -80 -638
-240 -876 -400 -69 -47 -122 -69 -139 -59 -19 12 3 87 53 180 22 41 53 99 68
129 39 72 39 134 1 177 -35 40 -207 158 -277 190 -86 40 -311 65 -585 67 -225
2 -883 -15 -1142 -29 -137 -7 -138 -7 -138 15 0 17 6 21 33 21 47 0 328 17
667 40 1311 88 2104 127 2760 133 124 1 242 3 263 5 l37 2 0 -107z m725 97
c1207 -20 1593 -34 2175 -80 436 -35 570 -47 574 -51 2 -2 1 -31 -2 -64 l-7
-60 -345 2 c-190 1 -501 9 -691 18 -218 11 -441 15 -600 12 -236 -4 -261 -6
-346 -30 -120 -34 -152 -48 -243 -106 -41 -26 -91 -54 -110 -62 -45 -18 -140
-16 -210 4 -144 43 -406 78 -645 86 l-190 6 -3 153 c-2 85 -1 160 2 168 3 8
13 14 23 14 10 0 288 -5 618 -10z m3090 -160 c110 -10 297 -28 415 -40 308
-29 501 -52 495 -59 -3 -3 -263 -4 -578 -2 -421 2 -574 6 -579 14 -4 7 -8 33
-8 60 0 57 -22 54 255 27z m-7665 -29 c0 -11 -3 -22 -8 -25 -9 -6 -482 -39
-942 -66 -548 -33 -731 -52 -920 -97 -135 -31 -219 -73 -275 -135 -70 -78 -72
-131 -10 -264 35 -75 37 -87 46 -224 4 -80 15 -190 23 -245 24 -154 40 -355
30 -365 -5 -5 -36 -13 -69 -19 -33 -5 -136 -23 -230 -40 -93 -16 -191 -32
-217 -35 -25 -3 -74 -12 -107 -20 l-61 -14 -2 426 c-2 235 -3 479 -3 543 l0
116 37 59 c33 55 42 62 115 93 193 84 524 156 958 210 308 39 963 89 1425 110
96 4 183 9 193 9 11 1 17 -5 17 -17z m-2080 -1562 c27 -6 50 -14 50 -17 0 -4
3 -140 6 -302 8 -347 -1 -497 -47 -825 -32 -229 -62 -386 -75 -400 -7 -7 -57
-18 -111 -24 -210 -25 -402 -53 -503 -71 -90 -16 -175 -20 -585 -26 -754 -11
-678 -13 -692 16 -37 79 -60 559 -44 963 l10 278 28 24 c16 13 34 25 40 25 7
0 59 13 115 29 128 37 409 93 633 126 212 32 337 58 396 84 52 23 177 49 464
96 229 38 246 39 315 24z m11680 -1394 c151 -9 315 -20 365 -25 49 -5 95 -10
102 -10 18 0 -2 -51 -91 -229 -79 -156 -88 -194 -50 -199 18 -3 31 12 72 80
73 123 117 206 143 273 13 33 26 64 30 68 4 5 41 6 83 2 l76 -7 0 -52 c0 -28
11 -114 25 -190 14 -77 25 -168 25 -203 l0 -63 -77 -62 c-190 -155 -256 -213
-261 -230 -2 -10 -5 -18 -6 -18 -1 0 -76 14 -166 30 -337 62 -511 75 -529 42
-16 -30 3 -43 80 -53 183 -23 826 -148 1119 -217 71 -17 76 -20 87 -52 15 -48
38 -199 30 -206 -3 -4 -106 1 -229 10 -221 15 -586 30 -1018 41 -124 4 -236 8
-248 11 l-24 5 7 312 c9 448 24 888 31 925 l7 32 71 0 c39 0 195 -7 346 -15z
m-11866 -294 c3 -5 27 -6 52 -3 l47 5 -7 -49 c-7 -47 -34 -177 -76 -364 -123
-545 -169 -732 -182 -724 -4 3 -24 28 -42 55 l-33 50 -17 -65 c-9 -36 -16 -74
-16 -84 0 -24 -16 -28 -130 -37 l-85 -7 2 184 c1 100 3 366 3 591 1 304 5 407
13 407 7 1 84 11 172 24 168 25 290 32 299 17z m12686 -430 c15 -48 41 -94 87
-155 36 -48 64 -89 62 -91 -2 -1 -62 10 -134 26 -71 15 -172 36 -222 46 -51 9
-93 20 -93 23 0 3 25 23 55 44 30 22 92 70 137 107 46 38 84 68 84 69 1 0 11
-31 24 -69z m-1169 -698 c1 -100 11 -154 32 -167 33 -20 47 16 47 126 0 83 3
100 17 105 20 8 664 -14 818 -27 61 -6 197 -17 304 -25 107 -8 195 -16 197
-17 1 -2 4 -77 5 -167 l2 -164 -39 -19 c-22 -11 -66 -30 -98 -44 -69 -28 -85
-26 -303 27 -147 37 -169 36 -166 -6 1 -29 -17 -146 -38 -247 -10 -46 -12 -47
-87 -83 -42 -20 -132 -68 -199 -106 -92 -53 -123 -76 -123 -90 0 -40 32 -33
174 38 117 58 285 164 306 192 11 14 554 241 561 234 12 -13 24 -453 12 -453
-5 0 -32 7 -59 15 -27 8 -113 29 -192 45 -79 17 -153 35 -163 41 -25 13 -49
-4 -49 -33 0 -20 78 -63 137 -74 22 -4 39 -18 56 -42 26 -40 148 -167 237
-248 78 -71 163 -208 158 -253 l-3 -23 -660 1 c-363 1 -693 4 -734 8 l-73 6 6
46 c14 100 18 543 8 855 -9 275 -14 332 -27 345 -12 12 -19 13 -33 5 -16 -10
-18 -50 -23 -479 -8 -581 -17 -775 -34 -775 -8 0 -14 31 -19 103 -12 197 -18
684 -8 852 5 94 7 175 4 182 -2 8 -14 1 -29 -17 -14 -17 -29 -30 -35 -30 -10
0 -3 404 7 421 4 5 28 9 56 9 l49 0 1 -67z m-11721 -180 c1 -21 -109 -469
-204 -838 -127 -492 -148 -571 -158 -582 -6 -7 -28 -13 -49 -13 -35 0 -39 -2
-39 -26 0 -24 -2 -25 -37 -20 -116 17 -488 49 -755 65 -149 9 -161 12 -217 41
-76 41 -102 69 -112 122 -4 24 -13 138 -20 253 -13 228 -5 755 11 785 17 31
280 84 614 125 72 9 191 27 266 41 192 35 700 69 700 47z m13301 -623 c6 -177
11 -225 39 -350 18 -81 45 -172 61 -205 28 -57 90 -135 108 -135 13 0 38 -42
50 -86 6 -21 16 -98 21 -169 5 -72 13 -143 19 -158 6 -15 48 -67 93 -115 106
-111 154 -192 175 -291 8 -42 26 -98 40 -125 22 -43 24 -53 14 -92 -23 -92 -8
-179 42 -233 36 -39 119 -88 208 -122 46 -17 103 -40 126 -51 79 -34 94 -38
210 -48 127 -11 139 -16 199 -71 53 -47 84 -63 164 -84 36 -9 73 -24 84 -33
13 -13 45 -19 120 -23 55 -3 89 -6 74 -7 -15 -1 -50 -11 -78 -22 -52 -21 -150
-27 -150 -10 0 5 -14 25 -31 45 -37 42 -105 65 -195 65 -58 0 -66 3 -99 34
-45 43 -96 50 -327 45 -174 -4 -170 -5 -182 52 -3 14 -55 77 -116 142 -77 82
-110 124 -110 141 0 13 7 59 16 102 22 106 15 162 -27 224 -18 27 -43 54 -56
61 -12 6 -35 33 -52 60 -16 27 -59 86 -95 131 -122 154 -206 273 -206 291 0
10 -7 34 -16 55 -14 34 -14 42 2 94 19 64 14 113 -16 151 -16 20 -20 41 -20
101 0 86 -13 120 -77 202 l-38 49 -6 320 c-3 176 -9 329 -13 340 -3 11 4 0 16
-25 19 -40 22 -68 29 -250z m-219 -151 c56 -15 68 -32 68 -100 0 -32 -3 -59
-8 -59 -4 0 -48 41 -97 91 l-90 91 45 -6 c25 -4 62 -11 82 -17z m-139 -596
l307 -6 26 -34 25 -33 -21 -64 -22 -63 20 -49 c11 -27 23 -65 26 -84 4 -19 30
-67 59 -106 28 -39 73 -100 99 -135 115 -158 211 -275 238 -292 l31 -19 -118
-122 -118 -121 -62 3 c-72 4 -103 -9 -103 -43 0 -32 13 -38 90 -46 36 -4 117
-13 180 -19 63 -7 120 -15 126 -19 6 -3 48 -45 94 -93 l82 -88 -325 0 -324 0
-7 98 c-3 53 -11 192 -16 307 -6 116 -15 296 -20 400 -5 105 -10 239 -10 298
0 114 -9 147 -39 147 -44 0 -45 -11 -38 -388 7 -338 19 -629 33 -789 l6 -73
-203 0 c-113 0 -344 -5 -514 -10 -171 -6 -353 -12 -405 -13 l-95 -2 -30 62
c-29 59 -32 62 -67 62 -34 1 -39 5 -54 39 -32 76 -100 424 -133 682 -20 154
-39 385 -43 532 l-3 77 120 4 c257 6 915 7 1208 0z m-10405 -887 c15 -8 38
-29 52 -48 23 -31 24 -40 23 -148 -1 -63 -5 -188 -9 -278 -5 -122 -3 -166 6
-177 11 -13 -8 -15 -161 -15 -96 0 -180 4 -187 9 -11 6 -7 32 18 127 17 65 46
178 64 249 37 143 81 241 122 274 32 25 37 25 72 7z m11426 -653 c3 -16 10
-66 15 -113 8 -70 7 -89 -6 -108 -8 -13 -69 -83 -136 -156 -294 -318 -315
-344 -300 -370 4 -8 40 -39 79 -70 68 -54 72 -59 77 -107 7 -53 20 -79 42 -79
34 0 37 26 28 222 l-8 193 118 130 c65 71 121 131 126 133 4 1 13 -45 19 -104
7 -58 14 -110 17 -115 4 -5 17 -9 30 -9 35 0 39 41 26 257 -6 102 -10 187 -9
189 2 1 93 4 204 6 l200 3 25 -28 c28 -32 77 -46 164 -47 86 0 103 -7 126 -51
30 -60 55 -72 162 -72 73 0 103 4 147 22 51 21 120 23 120 3 0 -4 -20 -49 -45
-100 -25 -51 -45 -98 -45 -103 0 -5 -12 -32 -26 -60 -18 -36 -30 -49 -40 -45
-9 3 -56 11 -106 16 -50 6 -94 13 -99 16 -5 3 -11 27 -15 54 -7 56 -23 75 -55
65 -20 -7 -21 -12 -16 -69 6 -60 84 -494 92 -506 2 -3 9 -43 15 -88 6 -46 14
-90 17 -98 4 -12 -27 -14 -208 -14 l-214 0 -21 33 c-29 44 -212 245 -234 257
-24 13 -48 3 -56 -22 -4 -15 3 -30 28 -57 36 -37 149 -176 162 -198 6 -10
-134 -13 -686 -13 -552 1 -690 3 -677 13 18 14 59 85 59 103 0 7 -60 13 -186
18 -173 7 -190 9 -242 34 -74 35 -120 82 -163 168 -37 71 -125 209 -224 349
-31 44 -103 150 -159 235 -166 251 -165 250 -105 250 17 0 28 4 25 9 -10 15
31 19 239 25 110 4 233 9 273 12 l73 6 -7 -29 c-4 -15 -28 -89 -55 -163 -27
-74 -49 -145 -49 -158 0 -28 26 -40 45 -21 22 22 69 125 116 251 l44 118 190
3 c104 1 391 3 637 5 l446 2 6 -27z m-5101 -79 c14 -14 -184 -298 -356 -510
-151 -186 -164 -226 -117 -352 19 -51 21 -70 14 -100 l-9 -37 -72 -3 c-80 -3
-71 -11 -88 73 -5 21 -10 24 -29 19 -31 -7 -32 -2 -51 236 -14 174 -14 186 3
198 14 10 17 28 17 91 l0 78 49 51 c27 27 82 94 122 149 61 80 80 99 106 104
43 8 403 11 411 3z m-9855 -83 c27 -7 36 4 -174 -227 -55 -61 -121 -146 -147
-189 -40 -67 -47 -74 -51 -54 -7 31 -26 348 -26 429 l0 61 188 -7 c103 -4 198
-10 210 -13z m16382 -204 c19 -8 59 -36 89 -62 30 -25 80 -59 111 -75 54 -27
58 -32 63 -71 7 -57 32 -87 105 -130 34 -20 73 -48 87 -63 l25 -27 -11 -116
c-9 -100 -8 -118 5 -131 13 -14 4 -23 -92 -88 l-107 -73 -332 -1 -333 0 -4 23
c-3 12 -12 53 -20 92 -13 58 -13 72 -2 85 17 19 109 203 186 370 147 321 140
309 169 295 14 -7 42 -20 61 -28z m907 -172 c12 -8 32 -32 43 -53 37 -71 97
-147 136 -174 30 -21 66 -32 161 -48 67 -11 129 -23 138 -26 19 -8 87 -124
105 -178 11 -34 11 -41 -4 -51 -20 -15 -250 -39 -321 -34 l-50 4 -6 46 c-9 58
-67 152 -111 179 -18 11 -49 23 -68 26 -36 7 -77 33 -141 90 -20 17 -52 35
-70 38 -110 22 -133 30 -175 67 -25 21 -65 50 -90 65 -25 15 -43 31 -41 38 2
7 46 11 133 12 72 0 142 6 159 12 39 15 172 7 202 -13z m-8333 -98 l8 -47 34
21 c26 16 35 18 38 7 3 -7 9 -74 16 -148 6 -74 13 -151 15 -171 4 -31 0 -42
-26 -70 -36 -38 -49 -101 -30 -138 l12 -21 -768 1 -768 0 44 20 c41 18 70 26
176 49 22 4 96 21 164 37 121 27 123 28 80 35 -24 3 -89 7 -144 8 -91 2 -96 3
-55 12 429 90 842 244 1105 412 39 24 75 43 80 42 6 -1 14 -24 19 -49z m7086
-19 c0 -3 -24 -57 -54 -119 l-54 -113 -12 59 c-6 33 -18 88 -25 123 l-13 62
79 -2 c43 -2 79 -6 79 -10z m978 -181 c23 -6 56 -25 73 -43 l30 -31 -93 -57
c-51 -31 -97 -56 -101 -56 -7 0 -4 62 9 168 4 36 9 42 22 37 9 -3 36 -11 60
-18z m2025 -111 c23 -14 78 -34 122 -46 158 -41 160 -41 144 -50 -24 -14 -431
-52 -441 -42 -6 6 11 36 41 76 28 37 51 71 51 77 0 17 41 9 83 -15z m-1770
-40 c30 -6 41 -14 56 -44 10 -20 21 -55 24 -77 3 -22 9 -55 13 -74 l7 -34
-279 7 c-153 4 -280 8 -281 10 -2 2 56 38 129 81 73 43 162 96 197 116 44 27
69 36 80 30 9 -5 33 -11 54 -15z"/>
<path d="M6590 15359 c-300 -3 -588 -9 -640 -13 -52 -3 -288 -13 -525 -21
-383 -14 -682 -27 -1200 -53 -88 -5 -183 -9 -210 -9 -28 0 -64 -6 -80 -14 -50
-24 -46 -64 24 -209 106 -222 175 -452 235 -778 86 -466 87 -570 5 -1037 -182
-1040 -227 -1245 -578 -2645 -132 -525 -203 -803 -273 -1060 -11 -41 -32 -123
-48 -181 -15 -58 -32 -114 -38 -125 -10 -19 -47 -157 -138 -514 -68 -263 -81
-303 -147 -455 -87 -199 -237 -497 -297 -589 -78 -120 -253 -290 -376 -365
-58 -35 -104 -70 -107 -81 -8 -31 18 -94 46 -107 56 -28 167 -35 677 -40 353
-3 710 1 1090 11 311 9 660 16 775 16 116 0 216 4 223 8 17 11 15 5 193 742
16 69 114 465 218 880 l188 755 84 6 c46 4 176 10 289 14 l206 8 17 -159 c46
-426 182 -1072 329 -1554 64 -213 112 -381 128 -450 7 -30 20 -71 30 -90 10
-19 23 -47 29 -63 6 -15 23 -33 38 -39 65 -28 1981 -26 2473 3 313 18 362 32
368 102 2 27 -2 41 -18 54 -12 10 -32 28 -46 40 -13 12 -64 43 -112 68 -100
51 -237 158 -211 163 10 2 44 -4 77 -12 95 -25 305 -46 458 -46 159 0 268 9
524 44 96 13 214 29 262 35 161 21 486 153 681 278 76 48 216 154 281 213 100
90 290 353 353 490 58 124 78 189 179 575 113 432 169 774 210 1290 21 269 30
1077 15 1285 -42 560 -138 1118 -253 1482 -12 37 -19 71 -15 74 14 14 418 6
562 -12 l41 -5 2 -437 c3 -451 9 -682 42 -1562 32 -843 44 -1685 32 -2345 -11
-623 -11 -624 -69 -780 -130 -351 -170 -422 -352 -617 -44 -48 -113 -132 -153
-185 -39 -54 -84 -113 -100 -131 -52 -61 -33 -114 54 -152 44 -19 72 -23 163
-24 205 -2 1048 14 1505 29 250 8 581 17 735 20 154 3 334 7 400 10 66 3 242
5 392 6 293 1 305 3 306 53 0 21 -18 45 -74 100 -163 159 -267 275 -323 360
-132 201 -253 492 -276 664 -6 42 -20 136 -30 207 -11 72 -24 193 -30 270 -5
77 -15 180 -20 229 -17 154 -79 1119 -89 1401 -6 149 -13 439 -16 645 -18
1274 -44 1999 -81 2240 l-5 35 163 0 c90 0 296 2 458 5 l295 5 70 -34 c55 -27
90 -55 161 -129 149 -154 207 -180 265 -123 23 23 29 38 29 73 0 24 6 61 13
83 11 32 11 86 2 285 -6 135 -12 569 -13 965 -2 599 -5 723 -16 741 -23 35
-133 62 -291 74 -312 22 -2215 52 -3275 52 -832 0 -1262 -10 -1281 -29 -5 -5
-12 -145 -16 -311 l-6 -301 -103 98 c-177 169 -402 303 -516 308 -31 1 -84 9
-117 18 -255 66 -465 90 -796 89 -227 0 -294 -3 -420 -22 -666 -98 -1169 -412
-1464 -910 -53 -89 -155 -314 -184 -401 -12 -39 -24 -71 -28 -71 -7 0 -74 309
-105 489 -29 164 -27 189 27 373 39 131 66 189 136 294 81 121 111 174 134
236 38 106 18 146 -88 172 -68 16 -378 39 -457 34 -22 -2 -286 -6 -586 -9z
m920 -210 c0 -5 -29 -48 -65 -96 -80 -107 -140 -227 -161 -319 -22 -101 -29
-271 -16 -382 6 -53 16 -154 22 -223 12 -154 76 -542 165 -999 53 -273 71
-352 214 -975 33 -143 76 -336 96 -430 33 -154 74 -343 234 -1085 69 -318 100
-463 171 -815 122 -596 195 -902 289 -1214 16 -53 37 -135 45 -183 24 -128
110 -386 176 -525 87 -182 221 -350 372 -463 62 -47 74 -60 56 -60 -13 0 -95
-7 -183 -16 -119 -11 -318 -16 -770 -19 -335 -2 -758 -9 -938 -15 -180 -6
-334 -10 -341 -7 -7 3 -18 31 -25 63 -13 55 -71 262 -156 549 -87 293 -188
724 -294 1250 -33 165 -67 319 -75 343 -8 23 -13 49 -9 57 9 24 -17 75 -46 89
-47 24 -130 28 -355 17 -279 -14 -362 -24 -385 -46 -58 -52 -392 -1220 -581
-2030 -23 -99 -50 -211 -59 -250 l-17 -70 -215 -2 c-198 -1 -488 -7 -1594 -33
-231 -6 -442 -12 -470 -15 l-50 -6 35 28 c103 83 179 156 226 218 55 71 152
252 222 411 22 50 53 104 69 120 39 38 84 160 134 358 42 169 78 294 159 561
135 443 209 715 360 1310 393 1553 511 2124 629 3060 63 500 78 828 38 873 -8
9 -20 51 -27 92 -39 240 -133 546 -220 721 -28 54 -50 103 -50 108 0 5 82 6
193 4 182 -5 1054 17 1517 38 118 5 499 12 845 15 347 4 631 7 632 8 8 6 203
-8 203 -15z m5128 -49 c609 -6 1350 -15 1647 -21 297 -6 776 -12 1065 -13
l525 -1 -1 -40 c0 -22 -7 -116 -15 -210 -10 -123 -14 -348 -14 -813 0 -353 -1
-642 -3 -642 -2 0 -26 18 -55 39 -162 121 -271 137 -765 111 -379 -20 -507
-38 -545 -78 -22 -23 -22 -29 -22 -265 0 -896 25 -2496 45 -2927 29 -593 98
-1535 130 -1755 11 -77 25 -174 31 -215 14 -99 53 -244 95 -355 71 -184 222
-446 317 -551 l47 -52 -132 -6 c-73 -3 -502 -15 -953 -26 -1201 -31 -1484 -39
-1645 -45 l-145 -5 48 44 c26 24 47 47 47 51 0 4 31 41 69 81 92 99 172 206
220 296 49 90 142 328 183 468 l32 105 7 470 c25 1577 24 1707 -26 2830 -17
388 -26 749 -29 1115 -4 429 -21 684 -51 756 -9 22 -23 36 -42 41 -15 4 -202
8 -414 8 l-386 0 -39 95 c-55 136 -178 378 -254 498 -36 57 -109 163 -163 234
l-97 131 9 52 c7 37 6 123 -4 282 -8 125 -15 252 -15 282 l0 54 95 -7 c53 -3
594 -11 1203 -16z m-2443 -140 c262 -36 466 -96 553 -161 49 -36 295 -271 440
-419 107 -109 226 -295 348 -543 117 -237 143 -302 270 -672 37 -107 95 -327
143 -545 142 -641 159 -1632 45 -2600 -52 -446 -90 -632 -200 -976 -61 -194
-180 -445 -285 -603 -80 -121 -274 -318 -384 -390 -98 -64 -277 -156 -353
-182 -77 -26 -496 -113 -657 -136 -180 -25 -615 -25 -758 0 -137 24 -291 61
-360 87 -53 20 -63 28 -103 91 -78 120 -191 419 -218 579 -9 47 -52 243 -96
435 -97 418 -116 508 -225 1040 -46 226 -106 514 -134 640 -27 127 -86 399
-131 605 -156 725 -160 742 -295 1320 -57 245 -115 506 -130 580 -14 74 -33
166 -42 203 -12 50 -13 74 -5 91 5 13 16 59 22 102 18 115 97 328 192 519 204
408 538 684 1015 838 167 55 339 87 588 111 82 8 683 -3 760 -14z"/>
<path d="M5914 13022 c-31 -20 -42 -72 -114 -522 -96 -601 -230 -1377 -261
-1509 -12 -56 11 -100 61 -118 45 -16 623 -6 660 11 14 6 33 28 44 49 17 36
18 41 2 80 -9 23 -23 112 -31 197 -18 182 -26 250 -65 550 -16 124 -43 333
-60 465 -77 593 -103 722 -158 788 -15 17 -58 23 -78 9z m86 -1097 c22 -198
49 -434 59 -525 11 -91 22 -195 25 -231 l6 -66 -162 -5 c-90 -3 -166 -4 -169
-2 -4 2 -3 22 2 44 30 132 157 927 174 1085 4 33 9 69 13 80 l6 20 3 -20 c2
-11 21 -182 43 -380z"/>
<path d="M9451 13485 c-91 -26 -148 -77 -181 -164 -74 -192 -94 -503 -106
-1636 -9 -798 16 -1649 57 -1883 10 -63 26 -171 35 -241 17 -143 35 -193 87
-238 52 -46 163 -109 232 -132 144 -48 386 -54 480 -12 92 40 169 141 194 252
27 121 34 423 22 989 -10 508 -31 1168 -46 1465 -3 61 -12 245 -20 410 -25
495 -50 845 -66 900 -41 145 -138 241 -283 282 -78 22 -337 27 -405 8z m366
-200 c113 -34 141 -86 173 -330 21 -151 24 -231 30 -720 4 -302 10 -613 14
-690 9 -192 24 -735 36 -1310 6 -264 15 -521 20 -571 10 -99 1 -144 -49 -242
-34 -67 -55 -76 -184 -74 -62 1 -137 6 -167 12 -60 11 -189 71 -216 101 -25
27 -63 300 -74 529 -20 435 -39 1233 -45 1876 -2 374 -8 701 -11 725 -3 26 7
154 26 309 47 397 60 415 290 405 58 -2 128 -11 157 -20z"/>
<path d="M9610 13189 c-75 -31 -103 -95 -116 -270 -2 -34 -8 -67 -11 -73 -4
-6 -9 -33 -11 -61 -1 -27 -7 -61 -11 -75 -10 -30 4 -1329 19 -1850 27 -901 27
-896 56 -1090 27 -177 30 -186 58 -212 42 -38 163 -87 234 -94 53 -6 61 -4 82
17 12 13 33 47 46 74 22 45 24 59 19 145 -3 52 -12 385 -21 740 -8 355 -21
913 -29 1240 -8 327 -15 683 -15 790 0 107 -4 211 -10 230 -5 19 -14 91 -19
160 -11 150 -29 212 -76 267 -46 55 -141 84 -195 62z m105 -681 c5 -22 14
-113 35 -328 9 -104 27 -473 33 -698 5 -164 10 -156 -98 -150 -55 3 -59 5 -66
31 -11 42 -32 959 -24 1064 7 100 7 100 77 102 31 1 38 -3 43 -21z m53 -1258
l22 0 0 -577 c0 -710 -13 -924 -52 -885 -25 25 -65 343 -82 657 -17 295 -36
708 -36 767 0 36 1 37 43 41 23 2 51 2 62 1 11 -2 30 -4 43 -4z"/>
<path d="M19650 15326 c-3 -2 -51 -6 -107 -7 l-102 -3 -20 -65 c-12 -36 -24
-71 -28 -77 -5 -6 -44 -16 -88 -22 -535 -72 -901 -202 -1258 -448 -43 -30 -82
-54 -87 -54 -7 0 -17 78 -22 173 -2 38 -2 39 -19 18 -10 -12 -21 -21 -26 -21
-5 0 -20 -13 -33 -30 -14 -16 -30 -29 -36 -30 -7 0 -15 -7 -18 -16 -3 -8 -10
-13 -14 -10 -5 3 -14 -6 -20 -19 -7 -14 -15 -25 -20 -25 -5 0 -28 -19 -52 -42
-24 -24 -42 -43 -40 -43 9 0 -44 -58 -192 -209 l-158 -161 6 -75 c4 -41 10
-83 13 -92 5 -14 43 16 188 146 286 258 460 400 625 511 157 105 161 107 273
160 55 26 111 53 125 60 31 16 199 67 305 94 312 77 836 102 1180 55 194 -27
386 -74 565 -139 36 -13 76 -27 90 -31 74 -21 297 -133 346 -173 18 -14 66
-50 107 -79 42 -29 111 -87 154 -128 43 -42 86 -80 96 -85 9 -5 17 -15 17 -22
0 -7 14 -25 31 -42 30 -29 175 -240 220 -320 88 -157 153 -327 195 -505 54
-227 58 -267 58 -590 1 -399 -5 -469 -64 -690 -45 -170 -73 -251 -130 -380
-185 -421 -555 -916 -1059 -1421 -267 -266 -563 -526 -744 -653 -21 -14 -20
-15 23 -15 25 0 99 4 165 9 66 5 269 16 450 25 519 25 629 45 867 160 93 44
124 72 57 50 -49 -16 -173 -41 -386 -80 -79 -14 -205 -37 -280 -50 -76 -14
-178 -29 -228 -33 -147 -14 -195 0 -179 50 4 12 115 133 248 268 224 228 358
381 485 557 55 77 62 81 239 155 60 25 78 38 100 72 15 22 29 43 32 46 3 3 6
12 8 20 2 8 10 22 17 30 7 8 13 17 13 20 0 13 26 60 34 60 5 0 8 8 6 18 -2 9
2 16 9 15 7 -2 10 4 7 12 -4 8 -1 15 5 15 6 0 11 3 10 8 -2 15 14 52 23 52 5
0 8 6 5 13 -2 6 7 28 20 47 12 19 23 40 23 47 0 7 5 13 11 13 6 0 9 7 5 15 -3
8 -1 15 4 15 5 0 7 7 4 15 -4 8 1 17 10 21 9 3 14 9 12 13 -5 7 12 49 40 104
8 16 12 33 8 38 -3 5 1 9 9 9 8 0 14 6 14 13 -1 24 16 77 24 77 5 0 9 12 9 26
0 14 4 22 10 19 6 -3 7 1 4 9 -3 9 -1 16 5 16 6 0 8 7 5 15 -4 8 -1 15 6 15 6
0 9 4 6 8 -2 4 4 27 14 50 l19 43 -27 -19 c-15 -11 -51 -32 -81 -47 -47 -23
-53 -24 -46 -8 95 235 186 513 216 657 28 132 31 363 7 571 -10 83 -22 197
-28 255 -5 58 -13 123 -16 145 -5 38 -3 43 60 112 36 39 66 79 66 89 0 31 -52
188 -75 224 -12 19 -20 41 -18 48 3 6 0 12 -6 12 -6 0 -11 5 -11 11 0 7 -10
28 -22 48 -13 20 -23 40 -23 46 0 13 -33 74 -56 103 -10 13 -15 30 -12 38 3 8
1 14 -5 14 -5 0 -21 18 -35 39 -24 36 -89 115 -135 164 -9 11 -16 23 -14 28 6
24 -20 4 -51 -39 -20 -26 -45 -56 -57 -67 l-21 -19 -41 49 c-126 152 -357 348
-493 418 -143 74 -365 162 -553 218 -78 24 -148 46 -154 50 -11 7 -9 19 29
150 2 9 -1 16 -9 16 -7 0 -40 6 -73 13 -33 7 -75 12 -92 11 -18 0 -33 3 -33 8
0 5 -25 9 -56 10 -31 0 -62 5 -70 11 -7 7 -18 9 -25 5 -6 -4 -15 -1 -20 6 -7
11 -9 11 -9 1 0 -8 -5 -10 -12 -6 -7 4 -24 9 -38 10 -14 0 -66 4 -115 8 -50 4
-93 5 -95 2z"/>
</g>
</svg>
